<?xml version="1.0" encoding="UTF-8"?>
<svg xmlns="http://www.w3.org/2000/svg" xmlns:xlink="http://www.w3.org/1999/xlink" width="px" height="px" viewBox="0 0 256 256" version="1.1">
<g id="surface1">
<path style=" stroke:none;fill-rule:nonzero;fill:rgb(83.921569%,32.156863%,27.45098%);fill-opacity:1;" d="M 57.40625 112.164062 C 48.433594 112.164062 41.15625 119.441406 41.15625 128.414062 L 35.308594 163.585938 L 41.15625 195.867188 C 41.15625 204.839844 48.433594 212.113281 57.40625 212.113281 C 66.378906 212.113281 73.65625 204.839844 73.65625 195.867188 L 73.65625 128.414062 C 73.65625 119.441406 66.378906 112.164062 57.40625 112.164062 Z M 57.40625 112.164062 "/>
<path style=" stroke:none;fill-rule:nonzero;fill:rgb(83.921569%,32.156863%,27.45098%);fill-opacity:1;" d="M 64.90625 210.28125 C 62.660156 211.453125 60.109375 212.113281 57.40625 212.113281 C 48.429688 212.113281 41.160156 204.839844 41.160156 195.863281 L 31.476562 156.863281 L 41.160156 128.414062 C 41.160156 119.441406 48.429688 112.164062 57.40625 112.164062 C 60.109375 112.164062 62.660156 112.824219 64.90625 114 C 59.703125 116.703125 56.160156 122.144531 56.160156 128.414062 L 56.160156 195.863281 C 56.160156 202.136719 59.703125 207.574219 64.90625 210.28125 Z M 64.90625 210.28125 "/>
<path style=" stroke:none;fill-rule:nonzero;fill:rgb(49.019608%,83.529412%,95.686275%);fill-opacity:1;" d="M 215.691406 244.054688 L 141.433594 246.324219 C 136.777344 246.324219 132.773438 242.75 132.554688 238.097656 C 132.320312 233.136719 136.277344 229.039062 141.1875 229.039062 L 206.199219 229.039062 C 210.972656 229.039062 217.105469 224.828125 217.105469 220.054688 L 214.84375 177.914062 C 214.84375 173.261719 218.417969 169.257812 223.066406 169.039062 C 228.03125 168.804688 232.128906 172.757812 232.128906 177.671875 L 232.128906 230.117188 C 232.128906 239.070312 224.640625 244.054688 215.691406 244.054688 Z M 215.691406 244.054688 "/>
<path style=" stroke:none;fill-rule:nonzero;fill:rgb(82.745098%,93.72549%,99.215686%);fill-opacity:1;" d="M 232.128906 225.628906 L 232.128906 230.121094 C 232.128906 239.070312 224.875 246.324219 215.925781 246.324219 L 141.433594 246.324219 C 136.78125 246.324219 132.773438 242.75 132.554688 238.101562 C 132.464844 236.203125 132.984375 234.433594 133.945312 232.96875 C 135.40625 235.871094 138.496094 237.824219 141.933594 237.824219 L 216.425781 237.824219 C 223.988281 237.824219 230.34375 232.640625 232.128906 225.628906 Z M 232.128906 225.628906 "/>
<path style=" stroke:none;fill-rule:nonzero;fill:rgb(82.745098%,93.72549%,99.215686%);fill-opacity:1;" d="M 232.128906 177.671875 C 232.128906 174.558594 230.480469 171.835938 228.011719 170.3125 C 228.011719 170.3125 228.011719 170.3125 228.015625 170.308594 C 227.820312 170.1875 227.617188 170.078125 227.410156 169.972656 C 227.355469 169.945312 227.300781 169.921875 227.246094 169.894531 C 227.066406 169.804688 226.882812 169.726562 226.695312 169.652344 C 226.621094 169.621094 226.546875 169.59375 226.46875 169.5625 C 226.269531 169.492188 226.070312 169.425781 225.863281 169.367188 C 225.8125 169.351562 225.765625 169.335938 225.71875 169.324219 C 225.46875 169.257812 225.214844 169.203125 224.960938 169.160156 C 224.882812 169.144531 224.804688 169.136719 224.726562 169.125 C 224.53125 169.097656 224.335938 169.074219 224.140625 169.0625 C 224.054688 169.054688 223.972656 169.046875 223.886719 169.042969 C 223.617188 169.03125 223.347656 169.027344 223.070312 169.039062 C 218.417969 169.253906 214.839844 173.261719 214.839844 177.914062 L 214.839844 220.394531 C 214.839844 225.171875 210.972656 229.039062 206.199219 229.039062 L 215.199219 229.039062 C 219.972656 229.039062 223.839844 225.171875 223.839844 220.398438 L 223.839844 207.566406 C 223.839844 206.613281 224.382812 205.742188 225.238281 205.324219 L 232.128906 201.945312 Z M 232.128906 177.671875 "/>
<path style=" stroke:none;fill-rule:nonzero;fill:rgb(83.921569%,32.156863%,27.45098%);fill-opacity:1;" d="M 240.953125 132.339844 L 234.390625 129.121094 C 233.445312 128.660156 232.851562 127.691406 232.859375 126.640625 C 232.921875 120.328125 232.824219 115.234375 232.867188 114.351562 C 232.867188 98.480469 229.332031 83.421875 223.011719 69.921875 C 206.316406 34.261719 162.4375 10.542969 120.585938 10.308594 C 120.585938 10.308594 24.714844 57.445312 25.035156 115.054688 L 25.035156 126.398438 C 25.035156 127.605469 24.371094 128.714844 23.308594 129.285156 C 21.246094 130.394531 19.734375 132.761719 19.210938 133.09375 C 15.46875 134.929688 13.09375 138.734375 13.09375 142.902344 L 11.820312 176.183594 C 11.820312 180.351562 14.191406 184.15625 17.933594 185.992188 L 41.15625 199.277344 C 41.15625 190.8125 41.15625 121.753906 41.15625 115.191406 C 41.15625 67.046875 79.859375 27.382812 128 27.234375 C 176.140625 27.382812 214.84375 67.046875 214.84375 115.191406 L 214.84375 199.277344 L 237.691406 186.902344 C 241.433594 185.070312 245.179688 181.710938 245.179688 177.542969 L 247.066406 173.496094 L 247.066406 142.148438 C 247.066406 137.980469 244.695312 134.175781 240.953125 132.339844 Z M 240.953125 132.339844 "/>
<path style=" stroke:none;fill-rule:nonzero;fill:rgb(83.921569%,32.156863%,27.45098%);fill-opacity:1;" d="M 198.59375 112.164062 C 207.566406 112.164062 214.84375 119.441406 214.84375 128.414062 L 219.164062 164.265625 L 214.84375 195.867188 C 214.84375 204.839844 207.566406 212.113281 198.59375 212.113281 C 189.621094 212.113281 182.34375 204.839844 182.34375 195.867188 L 182.34375 128.414062 C 182.34375 119.441406 189.621094 112.164062 198.59375 112.164062 Z M 198.59375 112.164062 "/>
<path style=" stroke:none;fill-rule:nonzero;fill:rgb(83.921569%,32.156863%,27.45098%);fill-opacity:1;" d="M 202.105469 207.355469 C 203.269531 208.519531 204.613281 209.511719 206.09375 210.28125 C 203.851562 211.453125 201.300781 212.113281 198.59375 212.113281 C 194.109375 212.113281 190.046875 210.296875 187.105469 207.355469 C 184.164062 204.414062 182.34375 200.351562 182.34375 195.863281 L 182.34375 128.414062 C 182.34375 119.441406 189.621094 112.164062 198.59375 112.164062 C 201.300781 112.164062 203.851562 112.824219 206.09375 114 C 200.894531 116.703125 197.34375 122.144531 197.34375 128.414062 L 197.34375 195.863281 C 197.34375 200.351562 199.164062 204.414062 202.105469 207.355469 Z M 202.105469 207.355469 "/>
<path style=" stroke:none;fill-rule:nonzero;fill:rgb(83.921569%,32.156863%,27.45098%);fill-opacity:1;" d="M 223.011719 69.921875 C 206.316406 34.265625 170.175781 9.453125 128.324219 9.21875 L 128.324219 9.210938 C 87.140625 8.75 50.636719 33.699219 33.289062 69.015625 C 26.371094 83.101562 22.496094 98.835938 22.589844 115.261719 L 22.589844 126.601562 C 22.589844 127.808594 21.925781 128.921875 20.859375 129.488281 C 18.800781 130.59375 15.570312 132.011719 15.050781 132.339844 C 11.304688 134.175781 8.933594 137.980469 8.933594 142.144531 L 8.933594 176.671875 C 8.933594 180.839844 11.304688 184.644531 15.050781 186.480469 L 41.160156 199.28125 L 41.160156 189.035156 L 18.789062 178.84375 C 17.964844 178.445312 17.433594 177.589844 17.433594 176.671875 L 17.433594 142.144531 C 17.558594 139.25 22.742188 138.566406 24.878906 136.980469 C 28.710938 134.925781 31.089844 130.949219 31.089844 126.601562 L 31.089844 115.261719 C 31.003906 102.511719 33.527344 89.949219 38.480469 78.121094 C 39.027344 76.8125 40.734375 76.480469 41.734375 77.484375 C 43.527344 79.285156 45.550781 81.164062 47.621094 81.984375 C 60.566406 50.078125 91.578125 27.351562 128 27.234375 C 164.574219 27.351562 195.699219 50.269531 208.539062 82.390625 C 212.605469 92.550781 214.839844 103.625 214.839844 115.195312 L 214.839844 199.28125 L 240.949219 186.480469 C 244.695312 184.644531 247.066406 180.839844 247.066406 176.671875 L 247.066406 173.496094 L 227.707031 183.410156 C 225.710938 184.429688 223.339844 182.980469 223.339844 180.738281 L 223.339844 115.195312 C 223.339844 102.09375 220.730469 89.589844 216.007812 78.183594 C 215.683594 77.40625 215.871094 76.507812 216.492188 75.9375 Z M 223.011719 69.921875 "/>
<path style=" stroke:none;fill-rule:nonzero;fill:rgb(97.647059%,68.627451%,21.960784%);fill-opacity:1;" d="M 50.203125 71.78125 C 52.65625 74.238281 56.777344 73.816406 58.632812 70.878906 C 62.816406 64.253906 67.925781 58.269531 73.777344 53.105469 C 88.175781 40.410156 107.066406 32.695312 127.726562 32.695312 C 147.425781 32.695312 165.515625 39.707031 179.636719 51.367188 C 186.484375 57.019531 192.398438 63.769531 197.109375 71.339844 C 198.925781 74.261719 202.929688 74.84375 205.457031 72.511719 L 218.914062 60.09375 C 220.886719 58.273438 221.242188 55.289062 219.75 53.058594 C 212.089844 41.589844 202.34375 31.632812 191.058594 23.722656 C 173.109375 11.140625 151.265625 3.75 127.726562 3.75 C 100.765625 3.75 76.027344 13.445312 56.816406 29.535156 C 49.097656 36 42.269531 43.496094 36.550781 51.808594 C 35.058594 53.976562 35.320312 56.902344 37.179688 58.761719 Z M 50.203125 71.78125 "/>
<path style=" stroke:none;fill-rule:nonzero;fill:rgb(95.686275%,53.72549%,19.215686%);fill-opacity:1;" d="M 207.941406 70.21875 L 205.460938 72.511719 C 202.929688 74.84375 198.925781 74.261719 197.109375 71.339844 C 192.398438 63.769531 186.484375 57.019531 179.636719 51.363281 C 165.515625 39.710938 147.425781 32.695312 127.726562 32.695312 C 107.066406 32.695312 88.175781 40.410156 73.78125 53.105469 C 67.925781 58.269531 62.816406 64.253906 58.628906 70.878906 C 56.78125 73.816406 52.65625 74.234375 50.199219 71.78125 L 47.234375 68.816406 C 52.660156 61.773438 62.789062 49.464844 67.164062 45.605469 C 83.914062 30.835938 105.425781 22.695312 127.726562 22.695312 C 148.941406 22.695312 169.636719 30.140625 186.003906 43.65625 C 191.816406 48.453125 202.589844 62.765625 207.941406 70.21875 Z M 207.941406 70.21875 "/>
<path style=" stroke:none;fill-rule:nonzero;fill:rgb(37.254902%,42.352941%,45.882353%);fill-opacity:1;" d="M 150.96875 250.5625 L 126.117188 250.648438 C 123.355469 250.648438 121.117188 248.410156 121.117188 245.648438 L 120.160156 229.796875 C 120.160156 227.035156 122.398438 224.796875 125.160156 224.796875 L 127.625 223.078125 L 135.054688 223.078125 L 139.222656 226.136719 L 142.554688 223.078125 L 152.980469 223.078125 C 155.742188 223.078125 157.980469 225.316406 157.980469 228.078125 L 157.980469 243.75 L 155.96875 245.5625 C 155.96875 248.324219 153.730469 250.5625 150.96875 250.5625 Z M 150.96875 250.5625 "/>
<path style=" stroke:none;fill-rule:nonzero;fill:rgb(83.921569%,32.156863%,27.45098%);fill-opacity:1;" d="M 157.980469 243.75 L 157.980469 247.25 C 157.980469 250.011719 155.746094 252.25 152.980469 252.25 L 124.625 252.25 C 121.863281 252.25 119.625 250.011719 119.625 247.25 L 119.625 228.078125 C 119.625 225.316406 121.863281 223.078125 124.625 223.078125 L 127.625 223.078125 L 127.625 238.75 C 127.625 241.511719 129.863281 243.75 132.625 243.75 Z M 157.980469 243.75 "/>
<path style=" stroke:none;fill-rule:nonzero;fill:rgb(83.921569%,32.156863%,27.45098%);fill-opacity:1;" d="M 135.054688 223.078125 L 142.554688 223.078125 L 142.554688 252.25 L 135.054688 252.25 Z M 135.054688 223.078125 "/>
<path style=" stroke:none;fill-rule:nonzero;fill:rgb(0%,0%,0%);fill-opacity:1;" d="M 242.601562 128.972656 L 236.617188 126.035156 C 236.660156 121.808594 236.59375 117.964844 236.617188 114.351562 C 236.617188 95.742188 231.84375 77.464844 222.792969 61.304688 C 224.910156 58.253906 225.015625 54.183594 222.867188 50.972656 C 214.914062 39.074219 204.9375 28.871094 193.210938 20.652344 C 185.53125 15.269531 177.214844 10.847656 168.492188 7.507812 C 166.558594 6.765625 164.390625 7.734375 163.648438 9.667969 C 162.910156 11.605469 163.878906 13.773438 165.8125 14.511719 C 173.960938 17.632812 181.730469 21.761719 188.90625 26.792969 C 199.871094 34.476562 209.199219 44.015625 216.632812 55.140625 C 217.101562 55.84375 216.992188 56.765625 216.371094 57.339844 C 215.804688 57.789062 203.28125 69.570312 202.523438 70.027344 C 202.140625 70.21875 201.773438 70.214844 201.558594 70.183594 C 201.253906 70.144531 200.679688 69.980469 200.292969 69.359375 C 195.371094 61.445312 189.222656 54.417969 182.023438 48.472656 C 166.773438 35.882812 147.488281 28.945312 127.726562 28.945312 C 106.945312 28.945312 86.90625 36.527344 71.296875 50.292969 C 65.152344 55.710938 59.824219 61.964844 55.460938 68.878906 C 55.097656 69.449219 54.554688 69.589844 54.257812 69.621094 C 53.953125 69.65625 53.359375 69.636719 52.851562 69.128906 L 39.832031 56.109375 C 39.253906 55.527344 39.171875 54.613281 39.640625 53.933594 C 45.160156 45.910156 51.75 38.667969 59.222656 32.40625 C 78.40625 16.347656 102.734375 7.5 127.726562 7.5 C 134.601562 7.5 141.480469 8.160156 148.171875 9.460938 C 150.203125 9.859375 152.171875 8.53125 152.570312 6.496094 C 152.964844 4.464844 151.636719 2.496094 149.605469 2.101562 C 142.441406 0.707031 135.082031 0 127.726562 0 C 100.976562 0 74.9375 9.46875 54.410156 26.660156 C 46.414062 33.355469 39.367188 41.101562 33.460938 49.683594 C 31.199219 52.96875 31.339844 57.28125 33.664062 60.398438 C 29.9375 66.785156 26.863281 73.519531 24.507812 80.453125 C 23.84375 82.414062 24.894531 84.542969 26.855469 85.210938 C 27.253906 85.34375 27.660156 85.410156 28.0625 85.410156 C 29.625 85.410156 31.082031 84.425781 31.613281 82.863281 C 33.582031 77.058594 36.101562 71.402344 39.113281 65.996094 L 47.121094 74.003906 C 40.761719 86.730469 37.40625 100.902344 37.40625 115.191406 L 37.40625 193.265625 L 16.699219 183.113281 C 14.257812 181.914062 12.683594 179.386719 12.683594 176.671875 L 12.683594 142.148438 C 12.683594 139.429688 14.257812 136.902344 16.699219 135.707031 C 17.964844 135.027344 20.519531 133.914062 22.632812 132.796875 C 24.917969 131.570312 26.339844 129.195312 26.339844 126.601562 L 26.339844 115.238281 C 26.3125 110.414062 26.644531 105.542969 27.328125 100.761719 C 27.621094 98.710938 26.195312 96.8125 24.148438 96.519531 C 22.097656 96.226562 20.195312 97.652344 19.902344 99.699219 C 19.167969 104.84375 18.808594 110.085938 18.839844 115.257812 L 18.839844 126.320312 C 17.898438 126.835938 14.785156 128.246094 13.261719 129.039062 C 8.347656 131.511719 5.183594 136.640625 5.183594 142.148438 L 5.183594 176.671875 C 5.183594 182.226562 8.40625 187.398438 13.398438 189.847656 L 38.410156 202.109375 C 41.039062 210.089844 48.558594 215.863281 57.40625 215.863281 C 68.433594 215.863281 77.40625 206.894531 77.40625 195.867188 L 77.40625 128.414062 C 77.40625 117.386719 68.433594 108.414062 57.40625 108.414062 C 52.699219 108.414062 48.367188 110.054688 44.945312 112.789062 C 45.300781 100.390625 48.382812 88.164062 53.9375 77.128906 C 54.320312 77.132812 54.707031 77.117188 55.09375 77.074219 C 57.871094 76.765625 60.316406 75.238281 61.800781 72.882812 C 65.785156 66.570312 70.648438 60.863281 76.257812 55.917969 C 90.496094 43.363281 108.773438 36.445312 127.726562 36.445312 C 145.75 36.445312 163.335938 42.773438 177.25 54.257812 C 183.820312 59.683594 189.433594 66.097656 193.925781 73.320312 C 195.394531 75.679688 197.808594 77.246094 200.550781 77.617188 C 200.964844 77.671875 201.378906 77.699219 201.789062 77.699219 C 201.972656 77.699219 202.152344 77.683594 202.332031 77.675781 C 207.714844 88.5625 210.707031 100.601562 211.054688 112.789062 C 207.632812 110.054688 203.304688 108.414062 198.59375 108.414062 C 187.566406 108.414062 178.59375 117.386719 178.59375 128.414062 L 178.59375 139.660156 C 178.59375 141.730469 180.273438 143.410156 182.34375 143.410156 C 184.414062 143.410156 186.09375 141.730469 186.09375 139.660156 L 186.09375 128.414062 C 186.09375 121.523438 191.703125 115.914062 198.59375 115.914062 C 205.484375 115.914062 211.09375 121.523438 211.09375 128.414062 L 211.09375 195.867188 C 211.09375 202.757812 205.484375 208.363281 198.59375 208.363281 C 191.703125 208.363281 186.09375 202.757812 186.09375 195.867188 L 186.09375 158.566406 C 186.09375 156.496094 184.414062 154.816406 182.34375 154.816406 C 180.273438 154.816406 178.59375 156.496094 178.59375 158.566406 L 178.59375 195.867188 C 178.59375 206.894531 187.566406 215.863281 198.59375 215.863281 C 203.320312 215.863281 207.664062 214.214844 211.09375 211.460938 L 211.09375 220.394531 C 211.09375 223.09375 208.898438 225.289062 206.199219 225.289062 L 161.269531 225.289062 C 160.101562 221.828125 156.832031 219.328125 152.984375 219.328125 L 124.628906 219.328125 C 119.800781 219.328125 115.878906 223.253906 115.878906 228.078125 L 115.878906 247.25 C 115.878906 252.074219 119.800781 256 124.628906 256 L 152.984375 256 C 156.816406 256 160.078125 253.515625 161.253906 250.074219 L 185.601562 250.074219 C 187.671875 250.074219 189.351562 248.394531 189.351562 246.324219 C 189.351562 244.253906 187.671875 242.574219 185.601562 242.574219 L 161.734375 242.574219 L 161.734375 232.789062 L 206.199219 232.789062 C 213.03125 232.789062 218.59375 227.226562 218.59375 220.394531 L 218.59375 201.617188 L 228.378906 196.820312 L 228.378906 230.117188 C 228.378906 236.988281 222.792969 242.574219 215.921875 242.574219 L 204.308594 242.574219 C 202.238281 242.574219 200.558594 244.253906 200.558594 246.324219 C 200.558594 248.394531 202.238281 250.074219 204.308594 250.074219 L 215.921875 250.074219 C 226.925781 250.074219 235.878906 241.121094 235.878906 230.117188 L 235.878906 193.140625 L 242.601562 189.847656 C 247.59375 187.398438 250.816406 182.226562 250.816406 176.671875 L 250.816406 142.148438 C 250.816406 136.589844 247.59375 131.417969 242.601562 128.972656 Z M 57.40625 115.914062 C 64.296875 115.914062 69.90625 121.523438 69.90625 128.414062 L 69.90625 195.867188 C 69.90625 202.757812 64.296875 208.367188 57.40625 208.367188 C 50.515625 208.367188 44.90625 202.757812 44.90625 195.867188 L 44.90625 128.414062 C 44.90625 121.523438 50.515625 115.914062 57.40625 115.914062 Z M 123.375 247.25 L 123.375 228.078125 C 123.375 227.390625 123.9375 226.828125 124.625 226.828125 L 135.054688 226.828125 L 135.054688 248.5 L 124.625 248.5 C 123.9375 248.5 123.375 247.9375 123.375 247.25 Z M 154.230469 247.25 C 154.230469 247.9375 153.671875 248.5 152.980469 248.5 L 142.554688 248.5 L 142.554688 226.828125 L 152.980469 226.828125 C 153.671875 226.828125 154.230469 227.390625 154.230469 228.078125 Z M 243.316406 176.671875 C 243.316406 179.386719 241.742188 181.917969 239.300781 183.113281 L 218.59375 193.265625 C 218.59375 183.703125 218.59375 122.980469 218.59375 115.195312 C 218.59375 101.023438 215.292969 86.957031 209.035156 74.3125 L 217.226562 66.753906 C 225.007812 81.332031 229.105469 97.664062 229.117188 114.28125 C 229.089844 117.394531 229.164062 121.570312 229.113281 126.605469 C 229.089844 129.085938 230.511719 131.398438 232.738281 132.488281 L 239.300781 135.707031 C 241.742188 136.902344 243.316406 139.429688 243.316406 142.148438 Z M 243.316406 176.671875 "/>
<path style=" stroke:none;fill-rule:nonzero;fill:rgb(0%,0%,0%);fill-opacity:1;" d="M 161.726562 115.78125 C 161.453125 112.539062 159.5625 109.910156 156.90625 109.085938 C 155.652344 108.695312 152.410156 108.203125 149.335938 111.972656 C 146.476562 115.480469 132.113281 141.433594 129.261719 146.597656 C 128.621094 147.761719 128.640625 149.175781 129.316406 150.316406 C 129.988281 151.460938 131.21875 152.160156 132.542969 152.160156 L 154.199219 152.160156 C 154.171875 156.140625 154.140625 159.976562 154.109375 163.386719 C 154.09375 165.457031 155.757812 167.148438 157.828125 167.167969 L 157.859375 167.167969 C 159.917969 167.167969 161.59375 165.511719 161.609375 163.449219 C 161.621094 162.117188 161.660156 157.75 161.699219 152.160156 L 164.476562 152.160156 C 166.546875 152.160156 168.226562 150.480469 168.226562 148.410156 C 168.226562 146.339844 166.546875 144.660156 164.476562 144.660156 L 161.75 144.660156 C 161.828125 132.074219 161.878906 117.617188 161.726562 115.78125 Z M 154.25 144.660156 L 138.914062 144.660156 C 144.542969 134.546875 151.589844 122.125 154.296875 117.941406 C 154.355469 122.054688 154.316406 133.191406 154.25 144.660156 Z M 154.25 144.660156 "/>
<path style=" stroke:none;fill-rule:nonzero;fill:rgb(0%,0%,0%);fill-opacity:1;" d="M 123.207031 163.75 C 123.179688 161.679688 121.5 160.035156 119.410156 160.046875 C 112.578125 160.132812 105.257812 160.183594 100.246094 160.160156 C 103.058594 156.457031 107.664062 150.316406 114.714844 140.238281 C 118.121094 135.1875 120.714844 130.414062 121.050781 125.082031 C 121.050781 115.839844 113.53125 108.324219 104.289062 108.324219 C 96.296875 108.324219 89.382812 114.007812 87.84375 121.839844 C 87.445312 123.871094 88.769531 125.84375 90.800781 126.242188 C 92.832031 126.640625 94.804688 125.316406 95.203125 123.285156 C 96.050781 118.960938 99.875 115.824219 104.289062 115.824219 C 109.324219 115.824219 113.429688 119.859375 113.546875 124.863281 C 113.261719 128.242188 111.410156 131.6875 108.570312 135.9375 C 100.492188 147.480469 95.671875 153.796875 93.078125 157.1875 C 90 161.222656 89.070312 162.4375 89.746094 164.644531 C 90.132812 165.890625 91.082031 166.851562 92.359375 167.277344 C 94.96875 167.976562 111.054688 167.585938 119.503906 167.546875 C 121.574219 167.523438 123.234375 165.820312 123.207031 163.75 Z M 123.207031 163.75 "/>
</g>
</svg>
