<?xml version="1.0" encoding="UTF-8"?>
<svg xmlns="http://www.w3.org/2000/svg" xmlns:xlink="http://www.w3.org/1999/xlink" width="px" height="px" viewBox="0 0 256 256" version="1.1">
<g id="surface1">
<path style=" stroke:none;fill-rule:nonzero;fill:rgb(100%,43.921569%,34.509804%);fill-opacity:1;" d="M 218.199219 82.394531 L 165.339844 82.394531 L 165.339844 178.199219 L 251.945312 178.199219 L 251.945312 135.078125 L 241.847656 100.167969 C 238.800781 89.640625 229.160156 82.394531 218.199219 82.394531 "/>
<path style=" stroke:none;fill-rule:nonzero;fill:rgb(51.764706%,85.882353%,100%);fill-opacity:1;" d="M 239.300781 134.632812 L 230.300781 103.515625 C 228.75 98.167969 223.773438 94.425781 218.199219 94.425781 L 177.371094 94.425781 L 177.371094 134.632812 Z M 239.300781 134.632812 "/>
<path style=" stroke:none;fill-rule:nonzero;fill:rgb(80.392157%,83.921569%,87.843137%);fill-opacity:1;" d="M 239.3125 134.617188 L 177.351562 134.617188 L 177.351562 94.40625 Z M 239.3125 134.617188 "/>
<path style=" stroke:none;fill-rule:nonzero;fill:rgb(94.901961%,94.901961%,94.901961%);fill-opacity:1;" d="M 239.300781 134.632812 L 230.300781 103.515625 C 228.75 98.167969 223.773438 94.425781 218.199219 94.425781 L 177.371094 94.425781 Z M 239.300781 134.632812 "/>
<path style=" stroke:none;fill-rule:nonzero;fill:rgb(100%,81.960784%,36.078431%);fill-opacity:1;" d="M 16 34.296875 L 149.34375 34.296875 C 158.171875 34.296875 165.339844 41.457031 165.339844 50.292969 L 165.339844 178.191406 L 0 178.191406 L 0 50.292969 C 0 41.457031 7.160156 34.296875 16 34.296875 "/>
<path style=" stroke:none;fill-rule:nonzero;fill:rgb(94.901961%,94.901961%,94.901961%);fill-opacity:1;" d="M 108.363281 34.324219 L 108.363281 76.597656 L 102.179688 70.410156 L 95.695312 76.894531 L 89.214844 70.410156 L 82.734375 76.894531 L 76.242188 70.410156 L 69.679688 76.894531 L 63.207031 70.410156 L 56.945312 76.671875 L 56.945312 34.324219 Z M 108.363281 34.324219 "/>
<path style=" stroke:none;fill-rule:nonzero;fill:rgb(20%,29.019608%,36.862745%);fill-opacity:1;" d="M 256 178.1875 L 256 196.265625 L 0.0234375 196.265625 L 0.0234375 178.1875 L 26.738281 178.1875 C 32.980469 166.988281 44.976562 159.414062 58.738281 159.414062 C 72.441406 159.414062 84.441406 166.988281 90.734375 178.1875 L 176.699219 178.1875 C 182.941406 166.988281 194.878906 159.414062 208.640625 159.414062 C 222.398438 159.414062 234.34375 166.988281 240.636719 178.1875 Z M 256 178.1875 "/>
<path style=" stroke:none;fill-rule:nonzero;fill:rgb(25.098039%,34.901961%,41.960784%);fill-opacity:1;" d="M 234.1875 196.152344 C 234.1875 210.265625 222.75 221.703125 208.636719 221.703125 C 194.527344 221.703125 183.097656 210.265625 183.097656 196.152344 C 183.097656 182.042969 194.53125 170.605469 208.636719 170.605469 C 222.753906 170.605469 234.1875 182.042969 234.1875 196.152344 "/>
<path style=" stroke:none;fill-rule:nonzero;fill:rgb(67.45098%,70.196078%,72.941176%);fill-opacity:1;" d="M 218.910156 196.152344 C 218.910156 201.824219 214.3125 206.414062 208.648438 206.414062 C 202.980469 206.414062 198.378906 201.824219 198.378906 196.152344 C 198.378906 190.484375 202.976562 185.894531 208.648438 185.894531 C 214.3125 185.886719 218.910156 190.484375 218.910156 196.152344 "/>
<path style=" stroke:none;fill-rule:nonzero;fill:rgb(25.098039%,34.901961%,41.960784%);fill-opacity:1;" d="M 84.265625 196.152344 C 84.265625 210.265625 72.820312 221.703125 58.714844 221.703125 C 44.605469 221.703125 33.164062 210.265625 33.164062 196.152344 C 33.164062 182.042969 44.605469 170.605469 58.714844 170.605469 C 72.820312 170.605469 84.265625 182.042969 84.265625 196.152344 "/>
<path style=" stroke:none;fill-rule:nonzero;fill:rgb(67.45098%,70.196078%,72.941176%);fill-opacity:1;" d="M 68.976562 196.152344 C 68.976562 201.824219 64.382812 206.414062 58.714844 206.414062 C 53.046875 206.414062 48.449219 201.824219 48.449219 196.152344 C 48.449219 190.484375 53.046875 185.894531 58.714844 185.894531 C 64.382812 185.894531 68.976562 190.484375 68.976562 196.152344 "/>
</g>
</svg>
