<?xml version="1.0" encoding="UTF-8"?>
<svg xmlns="http://www.w3.org/2000/svg" xmlns:xlink="http://www.w3.org/1999/xlink" width="px" height="px" viewBox="0 0 256 256" version="1.1">
<g id="surface1">
<path style=" stroke:none;fill-rule:nonzero;fill:rgb(83.529412%,52.54902%,47.058824%);fill-opacity:1;" d="M 249.597656 167.414062 C 249.574219 167.425781 215.820312 192.066406 199.308594 203.925781 C 195.367188 206.757812 191.734375 209.101562 188.339844 211.050781 C 178.542969 216.6875 167.414062 219.578125 156.113281 219.578125 L 79.609375 219.578125 L 52.160156 172.5625 L 70.359375 165.476562 C 78.203125 149.488281 94.648438 138.472656 113.664062 138.472656 C 124.359375 138.472656 134.238281 141.957031 142.234375 147.851562 C 144.558594 149.566406 146.726562 151.488281 148.707031 153.582031 L 177.953125 153.582031 C 183.324219 153.582031 187.902344 157.742188 188.125 163.109375 C 188.359375 168.761719 183.839844 173.460938 178.195312 173.460938 L 139.773438 173.460938 C 135.636719 173.460938 132.273438 176.8125 132.273438 180.960938 C 132.273438 185.109375 135.632812 188.460938 139.773438 188.460938 L 175.699219 188.460938 C 180.921875 188.460938 185.929688 187.011719 190.242188 184.296875 C 191.34375 183.613281 192.398438 182.835938 193.402344 181.984375 C 195.582031 180.40625 223.023438 160.636719 237.3125 150.34375 C 242.023438 146.949219 248.59375 148.011719 251.988281 152.726562 C 255.386719 157.441406 254.320312 164.023438 249.597656 167.414062 Z M 249.597656 167.414062 "/>
<path style=" stroke:none;fill-rule:nonzero;fill:rgb(72.54902%,36.470588%,29.803922%);fill-opacity:1;" d="M 178.191406 173.460938 L 142.234375 173.460938 L 142.234375 147.851562 C 144.558594 149.566406 146.726562 151.488281 148.707031 153.582031 L 178.191406 153.582031 C 183.675781 153.582031 188.132812 158.039062 188.132812 163.523438 C 188.132812 168.992188 183.695312 173.460938 178.191406 173.460938 Z M 178.191406 173.460938 "/>
<path style=" stroke:none;fill-rule:nonzero;fill:rgb(72.54902%,36.470588%,29.803922%);fill-opacity:1;" d="M 249.597656 167.414062 C 249.574219 167.425781 215.820312 192.066406 199.308594 203.925781 C 195.367188 206.757812 191.734375 209.101562 188.339844 211.050781 C 178.542969 216.6875 167.414062 219.578125 156.113281 219.578125 L 142.234375 219.578125 L 142.234375 188.460938 L 175.699219 188.460938 C 180.921875 188.460938 185.929688 187.011719 190.242188 184.296875 C 191.34375 183.613281 192.398438 182.835938 193.402344 181.984375 C 195.582031 180.40625 223.023438 160.636719 237.3125 150.34375 C 242.023438 146.949219 248.59375 148.011719 251.988281 152.726562 C 255.386719 157.441406 254.320312 164.023438 249.597656 167.414062 Z M 249.597656 167.414062 "/>
<path style=" stroke:none;fill-rule:nonzero;fill:rgb(98.039216%,74.509804%,17.254902%);fill-opacity:1;" d="M 212.730469 63.328125 C 212.730469 98.25 184.324219 126.660156 149.402344 126.660156 C 114.484375 126.660156 86.074219 98.25 86.074219 63.328125 C 86.074219 28.410156 114.484375 0 149.402344 0 C 184.324219 0 212.730469 28.410156 212.730469 63.328125 Z M 212.730469 63.328125 "/>
<path style=" stroke:none;fill-rule:nonzero;fill:rgb(100%,56.862745%,0%);fill-opacity:1;" d="M 212.730469 63.328125 C 212.730469 98.25 184.324219 126.660156 149.402344 126.660156 L 149.402344 0 C 184.324219 0 212.730469 28.410156 212.730469 63.328125 Z M 212.730469 63.328125 "/>
<path style=" stroke:none;fill-rule:nonzero;fill:rgb(94.117647%,96.862745%,100%);fill-opacity:1;" d="M 172.585938 80.945312 L 172.585938 81.015625 C 172.617188 86.304688 170.59375 91.296875 166.875 95.058594 C 164.113281 97.855469 160.664062 99.730469 156.902344 100.519531 L 156.902344 102.273438 C 156.902344 106.421875 153.542969 109.773438 149.402344 109.773438 C 145.257812 109.773438 141.902344 106.421875 141.902344 102.273438 L 141.902344 100.546875 C 138.242188 99.765625 134.878906 97.964844 132.160156 95.273438 C 128.394531 91.558594 126.304688 86.601562 126.273438 81.308594 C 126.25 77.171875 129.585938 73.789062 133.722656 73.765625 L 133.773438 73.765625 C 137.894531 73.765625 141.25 77.09375 141.273438 81.21875 C 141.277344 82.5 141.785156 83.703125 142.699219 84.605469 C 143.605469 85.5 144.800781 85.988281 146.070312 85.988281 L 146.097656 85.988281 L 149.402344 85.96875 L 152.8125 85.949219 C 154.097656 85.941406 155.300781 85.433594 156.203125 84.519531 C 157.105469 83.605469 157.59375 82.398438 157.585938 81.113281 L 157.585938 81.046875 C 157.574219 79.546875 156.847656 78.113281 155.640625 77.21875 L 149.402344 72.605469 L 134.238281 61.386719 C 129.21875 57.664062 126.21875 51.714844 126.21875 45.46875 C 126.21875 35.960938 132.953125 28.003906 141.902344 26.105469 L 141.902344 24.386719 C 141.902344 20.238281 145.257812 16.886719 149.402344 16.886719 C 153.542969 16.886719 156.902344 20.238281 156.902344 24.386719 L 156.902344 26.113281 C 165.828125 28.03125 172.542969 35.980469 172.542969 45.46875 C 172.542969 49.609375 169.183594 52.96875 165.042969 52.96875 C 160.898438 52.96875 157.542969 49.609375 157.542969 45.46875 C 157.542969 42.824219 155.390625 40.671875 152.742188 40.671875 L 146.019531 40.671875 C 143.375 40.671875 141.21875 42.824219 141.21875 45.46875 C 141.21875 46.984375 141.945312 48.425781 143.164062 49.324219 L 149.402344 53.945312 L 164.5625 65.164062 C 169.542969 68.851562 172.542969 74.746094 172.585938 80.945312 Z M 172.585938 80.945312 "/>
<path style=" stroke:none;fill-rule:nonzero;fill:rgb(87.45098%,90.588235%,95.686275%);fill-opacity:1;" d="M 152.742188 40.671875 L 149.402344 40.671875 L 149.402344 16.886719 C 153.542969 16.886719 156.902344 20.238281 156.902344 24.386719 L 156.902344 26.113281 C 165.828125 28.03125 172.542969 35.980469 172.542969 45.46875 C 172.542969 49.609375 169.183594 52.96875 165.042969 52.96875 C 160.898438 52.96875 157.542969 49.609375 157.542969 45.46875 C 157.542969 42.824219 155.390625 40.671875 152.742188 40.671875 Z M 152.742188 40.671875 "/>
<path style=" stroke:none;fill-rule:nonzero;fill:rgb(87.45098%,90.588235%,95.686275%);fill-opacity:1;" d="M 172.585938 80.945312 L 172.585938 81.015625 C 172.617188 86.304688 170.59375 91.296875 166.875 95.058594 C 164.113281 97.855469 160.664062 99.730469 156.902344 100.519531 L 156.902344 102.273438 C 156.902344 106.421875 153.542969 109.773438 149.402344 109.773438 L 149.402344 85.96875 L 152.8125 85.949219 C 154.097656 85.941406 155.300781 85.433594 156.203125 84.519531 C 157.105469 83.605469 157.59375 82.398438 157.585938 81.113281 L 157.585938 81.046875 C 157.574219 79.546875 156.847656 78.113281 155.640625 77.21875 L 149.402344 72.605469 L 149.402344 53.945312 L 164.5625 65.164062 C 169.542969 68.851562 172.542969 74.746094 172.585938 80.945312 Z M 172.585938 80.945312 "/>
<path style=" stroke:none;fill-rule:nonzero;fill:rgb(49.019608%,83.529412%,95.686275%);fill-opacity:1;" d="M 83.84375 234.695312 L 48.566406 255.0625 C 47.464844 255.699219 46.261719 256 45.078125 256 C 42.660156 256 40.3125 254.746094 39.019531 252.507812 L 2.960938 190.054688 C 1.03125 186.710938 2.179688 182.4375 5.519531 180.503906 L 40.796875 160.136719 C 42.40625 159.210938 44.3125 158.960938 46.101562 159.441406 C 47.894531 159.917969 49.417969 161.089844 50.34375 162.695312 L 86.402344 225.148438 C 88.328125 228.492188 87.1875 232.765625 83.84375 234.695312 Z M 83.84375 234.695312 "/>
</g>
</svg>
