<?xml version="1.0" encoding="UTF-8"?>
<svg xmlns="http://www.w3.org/2000/svg" xmlns:xlink="http://www.w3.org/1999/xlink" width="px" height="px" viewBox="0 0 256 256" version="1.1">
<g id="surface1">
<path style=" stroke:none;fill-rule:nonzero;fill:rgb(65.098039%,90.588235%,94.117647%);fill-opacity:1;" d="M 128 187.917969 L 99.835938 187.917969 L 99.835938 251.753906 C 99.835938 254.921875 103.183594 256.972656 106.003906 255.527344 L 126.066406 245.242188 C 127.28125 244.617188 128.71875 244.617188 129.933594 245.242188 L 149.996094 255.527344 C 152.816406 256.972656 156.164062 254.921875 156.164062 251.753906 L 156.164062 187.917969 Z M 128 187.917969 "/>
<path style=" stroke:none;fill-rule:nonzero;fill:rgb(41.960784%,85.098039%,90.588235%);fill-opacity:1;" d="M 156.164062 187.917969 L 156.164062 251.753906 C 156.164062 254.921875 152.816406 256.972656 149.996094 255.527344 L 145.175781 253.054688 C 145.59375 252.410156 145.839844 251.628906 145.839844 250.765625 L 145.839844 187.917969 Z M 156.164062 187.917969 "/>
<path style=" stroke:none;fill-rule:nonzero;fill:rgb(99.607843%,65.098039%,7.45098%);fill-opacity:1;" d="M 228.414062 100.414062 C 228.414062 109.039062 219.203125 116.335938 217.074219 124.289062 C 214.878906 132.515625 219.144531 143.429688 214.976562 150.632812 C 210.746094 157.941406 199.121094 159.675781 193.191406 165.609375 C 187.261719 171.539062 185.527344 183.164062 178.21875 187.390625 C 171.015625 191.558594 160.101562 187.292969 151.871094 189.492188 C 143.917969 191.617188 136.621094 200.832031 128 200.832031 C 119.378906 200.832031 112.082031 191.617188 104.128906 189.492188 C 95.902344 187.292969 84.988281 191.558594 77.78125 187.390625 C 70.472656 183.164062 68.738281 171.539062 62.808594 165.609375 C 56.878906 159.679688 45.253906 157.941406 41.023438 150.632812 C 36.855469 143.429688 41.125 132.515625 38.925781 124.289062 C 36.800781 116.335938 27.585938 109.039062 27.585938 100.417969 C 27.585938 91.792969 36.796875 84.496094 38.925781 76.546875 C 41.125 68.316406 36.855469 57.402344 41.023438 50.199219 C 45.253906 42.890625 56.878906 41.15625 62.808594 35.226562 C 68.738281 29.292969 70.472656 17.667969 77.78125 13.441406 C 84.984375 9.273438 95.898438 13.539062 104.128906 11.339844 C 112.082031 9.214844 119.378906 0 128 0 C 136.621094 0 143.917969 9.214844 151.871094 11.339844 C 160.101562 13.539062 171.015625 9.273438 178.21875 13.441406 C 185.527344 17.667969 187.261719 29.292969 193.191406 35.222656 C 199.121094 41.15625 210.746094 42.890625 214.976562 50.199219 C 219.144531 57.402344 214.875 68.316406 217.074219 76.542969 C 219.203125 84.496094 228.414062 91.792969 228.414062 100.414062 Z M 228.414062 100.414062 "/>
<path style=" stroke:none;fill-rule:nonzero;fill:rgb(98.431373%,53.333333%,0.392157%);fill-opacity:1;" d="M 217.078125 124.285156 C 214.875 132.515625 219.144531 143.429688 214.976562 150.632812 C 210.746094 157.941406 199.125 159.675781 193.195312 165.605469 C 187.257812 171.539062 185.523438 183.164062 178.21875 187.390625 C 171.011719 191.558594 160.101562 187.292969 151.875 189.492188 C 143.917969 191.617188 136.625 200.832031 128 200.832031 C 125.289062 200.832031 122.710938 199.921875 120.210938 198.609375 C 127.722656 197.074219 145.320312 182.964844 152.457031 181.050781 C 160.683594 178.855469 167.109375 182.410156 174.3125 178.242188 C 181.621094 174.019531 179.859375 164.699219 185.789062 158.769531 C 191.71875 152.839844 202.828125 150.902344 205.792969 145.597656 C 209.851562 138.332031 203.441406 131.792969 205.636719 123.566406 C 207.765625 115.613281 216.3125 108.222656 216.3125 99.597656 C 216.3125 90.972656 208.328125 86.015625 206.199219 78.0625 C 204.003906 69.832031 208.117188 60.738281 203.953125 53.535156 C 199.722656 46.222656 187.691406 44.566406 182.003906 37.394531 C 174.3125 27.691406 173.070312 16.082031 167.90625 11.542969 C 171.675781 11.4375 175.261719 11.730469 178.21875 13.441406 C 185.523438 17.667969 187.261719 29.292969 193.195312 35.222656 C 199.125 41.15625 210.746094 42.890625 214.976562 50.195312 C 219.144531 57.398438 214.875 68.316406 217.078125 76.542969 C 219.199219 84.5 228.414062 91.792969 228.414062 100.414062 C 228.414062 109.039062 219.199219 116.335938 217.078125 124.285156 Z M 217.078125 124.285156 "/>
<path style=" stroke:none;fill-rule:nonzero;fill:rgb(99.607843%,89.411765%,35.294118%);fill-opacity:1;" d="M 198.003906 100.414062 C 198.003906 139.078125 166.664062 170.421875 128 170.421875 C 89.335938 170.421875 57.996094 139.078125 57.996094 100.414062 C 57.996094 61.753906 89.335938 30.410156 128 30.410156 C 166.664062 30.410156 198.003906 61.753906 198.003906 100.414062 Z M 198.003906 100.414062 "/>
<path style=" stroke:none;fill-rule:nonzero;fill:rgb(99.607843%,83.137255%,0.784314%);fill-opacity:1;" d="M 198.007812 100.414062 C 198.007812 139.082031 166.660156 170.421875 128 170.421875 C 120.152344 170.421875 112.605469 169.128906 105.558594 166.746094 C 109.21875 167.335938 112.976562 167.644531 116.808594 167.644531 C 155.472656 167.644531 186.8125 136.304688 186.8125 97.640625 C 186.8125 66.832031 166.914062 40.671875 139.257812 31.316406 C 172.566406 36.703125 198.007812 65.585938 198.007812 100.414062 Z M 198.007812 100.414062 "/>
<path style=" stroke:none;fill-rule:nonzero;fill:rgb(99.607843%,65.098039%,7.45098%);fill-opacity:1;" d="M 79.816406 81.675781 L 73.40625 81.675781 C 71.335938 81.675781 69.65625 83.355469 69.65625 85.425781 C 69.65625 87.496094 71.335938 89.175781 73.40625 89.175781 L 76.066406 89.175781 L 76.066406 115.40625 C 76.066406 117.476562 77.746094 119.15625 79.816406 119.15625 C 81.886719 119.15625 83.566406 117.476562 83.566406 115.40625 L 83.566406 85.425781 C 83.566406 83.355469 81.886719 81.675781 79.816406 81.675781 Z M 79.816406 81.675781 "/>
<path style=" stroke:none;fill-rule:nonzero;fill:rgb(99.607843%,65.098039%,7.45098%);fill-opacity:1;" d="M 174.519531 79.585938 C 172.613281 78.78125 170.414062 79.679688 169.613281 81.589844 L 155.027344 116.339844 C 154.226562 118.25 155.125 120.445312 157.035156 121.246094 C 157.507812 121.445312 158 121.539062 158.484375 121.539062 C 159.949219 121.539062 161.34375 120.675781 161.945312 119.242188 L 176.527344 84.492188 C 177.328125 82.582031 176.429688 80.386719 174.519531 79.585938 Z M 174.519531 79.585938 "/>
<path style=" stroke:none;fill-rule:nonzero;fill:rgb(99.607843%,65.098039%,7.45098%);fill-opacity:1;" d="M 158.894531 84.886719 C 157.808594 82.261719 154.800781 81.019531 152.179688 82.105469 C 149.558594 83.191406 148.3125 86.199219 149.402344 88.820312 C 150.488281 91.441406 153.492188 92.6875 156.117188 91.601562 C 158.738281 90.511719 159.980469 87.507812 158.894531 84.886719 Z M 158.894531 84.886719 "/>
<path style=" stroke:none;fill-rule:nonzero;fill:rgb(99.607843%,65.098039%,7.45098%);fill-opacity:1;" d="M 182.59375 113.941406 C 182.59375 116.777344 180.292969 119.078125 177.453125 119.078125 C 174.617188 119.078125 172.316406 116.777344 172.316406 113.941406 C 172.316406 111.105469 174.617188 108.804688 177.453125 108.804688 C 180.292969 108.804688 182.59375 111.105469 182.59375 113.941406 Z M 182.59375 113.941406 "/>
<path style=" stroke:none;fill-rule:nonzero;fill:rgb(99.607843%,65.098039%,7.45098%);fill-opacity:1;" d="M 100.746094 81.066406 C 93.898438 81.066406 88.324219 86.636719 88.324219 93.484375 L 88.324219 107.347656 C 88.324219 114.195312 93.898438 119.769531 100.746094 119.769531 C 107.59375 119.769531 113.164062 114.195312 113.164062 107.347656 L 113.164062 93.484375 C 113.164062 86.636719 107.59375 81.066406 100.746094 81.066406 Z M 105.664062 107.347656 C 105.664062 110.0625 103.457031 112.269531 100.746094 112.269531 C 98.035156 112.269531 95.828125 110.0625 95.828125 107.347656 L 95.828125 93.484375 C 95.828125 90.773438 98.035156 88.566406 100.746094 88.566406 C 103.457031 88.566406 105.664062 90.773438 105.664062 93.484375 Z M 105.664062 107.347656 "/>
<path style=" stroke:none;fill-rule:nonzero;fill:rgb(99.607843%,65.098039%,7.45098%);fill-opacity:1;" d="M 130.601562 81.066406 C 123.753906 81.066406 118.183594 86.636719 118.183594 93.484375 L 118.183594 107.347656 C 118.183594 114.195312 123.753906 119.769531 130.601562 119.769531 C 137.449219 119.769531 143.023438 114.195312 143.023438 107.347656 L 143.023438 93.484375 C 143.023438 86.636719 137.449219 81.066406 130.601562 81.066406 Z M 135.523438 107.347656 C 135.523438 110.0625 133.316406 112.269531 130.601562 112.269531 C 127.890625 112.269531 125.683594 110.0625 125.683594 107.347656 L 125.683594 93.484375 C 125.683594 90.773438 127.890625 88.566406 130.601562 88.566406 C 133.316406 88.566406 135.523438 90.773438 135.523438 93.484375 Z M 135.523438 107.347656 "/>
</g>
</svg>
