<?xml version="1.0" encoding="UTF-8"?>
<svg xmlns="http://www.w3.org/2000/svg" xmlns:xlink="http://www.w3.org/1999/xlink" width="px" height="px" viewBox="0 0 439 427" version="1.1">
<g id="surface1">
<path style=" stroke:none;fill-rule:nonzero;fill:rgb(99.607843%,99.607843%,99.607843%);fill-opacity:1;" d="M 82.105469 177.429688 C 101.371094 177.429688 117.046875 193.488281 117.046875 213.21875 C 117.046875 232.953125 101.371094 249.007812 82.105469 249.007812 C 62.84375 249.007812 47.167969 232.953125 47.167969 213.21875 C 47.167969 193.488281 62.84375 177.429688 82.105469 177.429688 M 82.105469 160.914062 C 53.691406 160.914062 30.648438 184.328125 30.648438 213.21875 C 30.648438 242.109375 53.6875 265.527344 82.105469 265.527344 C 110.527344 265.527344 133.566406 242.109375 133.566406 213.21875 C 133.558594 184.328125 110.523438 160.914062 82.105469 160.914062 Z M 82.105469 160.914062 "/>
<path style=" stroke:none;fill-rule:nonzero;fill:rgb(99.607843%,99.607843%,99.607843%);fill-opacity:1;" d="M 226.105469 177.429688 C 245.476562 177.429688 261.230469 193.488281 261.230469 213.21875 C 261.230469 232.953125 245.472656 249.007812 226.105469 249.007812 C 206.742188 249.007812 190.984375 232.953125 190.984375 213.21875 C 190.984375 193.484375 206.738281 177.429688 226.105469 177.429688 M 226.105469 160.914062 C 197.585938 160.914062 174.46875 184.328125 174.46875 213.21875 C 174.46875 242.109375 197.585938 265.527344 226.105469 265.527344 C 254.628906 265.527344 277.746094 242.109375 277.746094 213.21875 C 277.746094 184.328125 254.628906 160.914062 226.105469 160.914062 Z M 226.105469 160.914062 "/>
<path style=" stroke:none;fill-rule:nonzero;fill:rgb(99.607843%,99.607843%,99.607843%);fill-opacity:1;" d="M 370.109375 177.429688 C 389.371094 177.429688 405.046875 193.488281 405.046875 213.21875 C 405.046875 232.953125 389.371094 249.007812 370.109375 249.007812 C 350.84375 249.007812 335.167969 232.953125 335.167969 213.21875 C 335.171875 193.484375 350.84375 177.429688 370.109375 177.429688 M 370.109375 160.914062 C 341.691406 160.914062 318.648438 184.328125 318.648438 213.21875 C 318.648438 242.109375 341.6875 265.527344 370.109375 265.527344 C 398.527344 265.527344 421.566406 242.109375 421.566406 213.21875 C 421.566406 184.328125 398.527344 160.914062 370.109375 160.914062 Z M 370.109375 160.914062 "/>
</g>
</svg>
