<?xml version="1.0" encoding="UTF-8"?>
<svg xmlns="http://www.w3.org/2000/svg" xmlns:xlink="http://www.w3.org/1999/xlink" width="px" height="px" viewBox="0 0 60 15" version="1.1">
<g id="surface1">
<path style=" stroke:none;fill-rule:nonzero;fill:rgb(0%,0%,0%);fill-opacity:1;" d="M 15 7.5 C 15 11.640625 11.640625 15 7.5 15 C 3.359375 15 0 11.640625 0 7.5 C 0 3.359375 3.359375 0 7.5 0 C 11.640625 0 15 3.359375 15 7.5 Z M 15 7.5 "/>
<path style=" stroke:none;fill-rule:nonzero;fill:rgb(0%,0%,0%);fill-opacity:0.301961;" d="M 34.5 7.5 C 34.5 9.984375 32.484375 12 30 12 C 27.515625 12 25.5 9.984375 25.5 7.5 C 25.5 5.015625 27.515625 3 30 3 C 32.484375 3 34.5 5.015625 34.5 7.5 Z M 34.5 7.5 "/>
<path style=" stroke:none;fill-rule:nonzero;fill:rgb(0%,0%,0%);fill-opacity:1;" d="M 60 7.5 C 60 11.640625 56.640625 15 52.5 15 C 48.359375 15 45 11.640625 45 7.5 C 45 3.359375 48.359375 0 52.5 0 C 56.640625 0 60 3.359375 60 7.5 Z M 60 7.5 "/>
</g>
</svg>
