<?xml version="1.0" encoding="UTF-8"?>
<svg xmlns="http://www.w3.org/2000/svg" xmlns:xlink="http://www.w3.org/1999/xlink" width="px" height="px" viewBox="0 0 55 60" version="1.1">
<g id="surface1">
<path style=" stroke:none;fill-rule:nonzero;fill:rgb(60%,60%,60%);fill-opacity:1;" d="M 45.800781 44.273438 C 49.992188 44.273438 53.386719 40.878906 53.386719 36.691406 C 53.386719 32.503906 49.992188 29.113281 45.800781 29.113281 Z M 45.800781 44.273438 "/>
<path style=" stroke:none;fill-rule:nonzero;fill:rgb(60%,60%,60%);fill-opacity:1;" d="M 47.613281 6.972656 C 43.113281 2.476562 37.152344 0 30.832031 0 C 24.507812 0 18.546875 2.476562 14.046875 6.972656 C 12.363281 8.65625 10.933594 10.578125 9.816406 12.675781 C 9.109375 14.609375 11.394531 15.082031 11.949219 13.796875 C 15.53125 7.03125 22.652344 2.410156 30.832031 2.410156 C 42.601562 2.410156 52.179688 11.980469 52.179688 23.746094 L 52.179688 30.65625 C 50.578125 28.964844 48.3125 27.90625 45.800781 27.90625 C 45.136719 27.90625 44.59375 28.445312 44.59375 29.109375 L 44.59375 44.273438 C 44.59375 44.9375 45.136719 45.476562 45.800781 45.476562 C 50.605469 45.476562 54.519531 41.609375 54.589844 36.828125 C 54.589844 36.8125 54.59375 32.449219 54.59375 23.746094 C 54.59375 17.425781 52.113281 11.46875 47.613281 6.972656 Z M 47.007812 42.953125 L 47.007812 30.429688 C 49.949219 30.996094 52.179688 33.589844 52.179688 36.691406 C 52.179688 39.796875 49.949219 42.386719 47.007812 42.953125 Z M 52.394531 44.152344 C 52.089844 44.152344 51.789062 44.277344 51.574219 44.492188 C 51.355469 44.710938 51.234375 45.007812 51.230469 45.316406 C 51.230469 45.621094 51.355469 45.917969 51.574219 46.136719 C 51.792969 46.351562 52.085938 46.476562 52.394531 46.476562 C 52.703125 46.476562 53 46.351562 53.21875 46.136719 C 53.433594 45.917969 53.558594 45.621094 53.558594 45.316406 C 53.558594 45.007812 53.433594 44.707031 53.21875 44.492188 C 53 44.273438 52.703125 44.152344 52.394531 44.152344 Z M 51.734375 47.941406 C 51.457031 47.78125 51.128906 47.734375 50.820312 47.820312 C 50.511719 47.902344 50.246094 48.101562 50.085938 48.378906 C 47.746094 52.429688 44.066406 55.214844 39.402344 56.488281 L 38.792969 53.636719 C 38.726562 53.324219 38.539062 53.050781 38.273438 52.875 C 38.003906 52.699219 37.675781 52.640625 37.363281 52.707031 L 33.292969 53.570312 C 32.640625 53.710938 32.226562 54.351562 32.363281 55 L 33.230469 59.070312 C 33.367188 59.722656 34.007812 60.136719 34.660156 59.996094 L 38.730469 59.132812 C 44.640625 57.878906 49.289062 54.578125 52.175781 49.585938 C 52.507812 49.011719 52.3125 48.273438 51.734375 47.941406 Z M 34.972656 55.679688 L 36.683594 55.316406 L 37.050781 57.027344 L 35.335938 57.390625 Z M 34.972656 55.679688 "/>
<path style=" stroke:none;fill-rule:nonzero;fill:rgb(60%,60%,60%);fill-opacity:1;" d="M 4.464844 18.472656 C 3.4375 18.472656 2.605469 19.304688 2.605469 20.332031 L 2.605469 41.789062 C 2.605469 42.816406 3.4375 43.648438 4.464844 43.648438 L 32.003906 43.648438 L 35.164062 47.539062 C 35.261719 47.660156 35.429688 47.707031 35.578125 47.652344 C 35.726562 47.601562 35.824219 47.460938 35.824219 47.304688 L 35.824219 20.332031 C 35.824219 19.304688 34.992188 18.472656 33.964844 18.472656 Z M 4.464844 45.878906 C 2.207031 45.878906 0.371094 44.046875 0.371094 41.789062 L 0.371094 20.332031 C 0.371094 18.074219 2.207031 16.242188 4.464844 16.242188 L 33.964844 16.242188 C 36.226562 16.242188 38.058594 18.074219 38.058594 20.332031 L 38.058594 47.304688 C 38.058594 48.40625 37.363281 49.386719 36.324219 49.757812 C 35.285156 50.125 34.125 49.800781 33.429688 48.945312 L 30.941406 45.878906 Z M 4.464844 45.878906 "/>
<path style=" stroke:none;fill-rule:evenodd;fill:rgb(60%,60%,60%);fill-opacity:1;" d="M 5.046875 33.8125 L 5.046875 32.09375 L 9.015625 27.992188 C 9.765625 27.207031 10.34375 26.4375 10.34375 25.65625 C 10.34375 24.722656 9.714844 24.136719 8.832031 24.136719 C 7.9375 24.136719 7.273438 24.671875 6.890625 25.503906 L 4.964844 24.371094 C 5.710938 22.703125 7.222656 21.902344 8.800781 21.902344 C 10.792969 21.902344 12.636719 23.238281 12.636719 25.574219 C 12.636719 26.988281 11.824219 28.207031 10.726562 29.308594 L 8.453125 31.59375 L 12.820312 31.59375 L 12.820312 33.8125 Z M 23.113281 29.691406 L 23.113281 31.828125 L 21.867188 31.828125 L 21.867188 33.8125 L 19.558594 33.8125 L 19.558594 31.828125 L 14.0625 31.828125 L 14.0625 29.691406 L 18.066406 21.902344 L 20.523438 21.902344 L 16.539062 29.691406 L 19.558594 29.691406 L 19.558594 26.921875 L 21.871094 26.921875 L 21.871094 29.691406 Z M 26.074219 29.902344 L 33.582031 29.902344 L 33.582031 31.851562 L 29.644531 41.578125 L 27.21875 41.578125 L 31.042969 32.101562 L 26.074219 32.101562 Z M 26.074219 29.902344 "/>
<path style=" stroke:none;fill-rule:evenodd;fill:rgb(60%,60%,60%);fill-opacity:1;" d="M 28.617188 22.316406 L 18.246094 41.578125 L 19.253906 41.578125 L 29.617188 22.316406 Z M 28.617188 22.316406 "/>
</g>
</svg>
