<?xml version="1.0" encoding="UTF-8"?>
<svg xmlns="http://www.w3.org/2000/svg" xmlns:xlink="http://www.w3.org/1999/xlink" width="px" height="px" viewBox="0 0 79 53" version="1.1">
<g id="surface1">
<path style=" stroke:none;fill-rule:evenodd;fill:rgb(60%,60%,60%);fill-opacity:1;" d="M 43.375 6.5 L 67.242188 13.957031 L 67.242188 25.636719 L 59.347656 28.210938 L 59.347656 17.109375 L 34.5 9.1875 Z M 43.375 6.5 "/>
<path style=" stroke:none;fill-rule:nonzero;fill:rgb(60%,60%,60%);fill-opacity:1;" d="M 44.511719 6.472656 L 68.53125 14.148438 C 69.050781 14.3125 69.402344 14.792969 69.402344 15.335938 L 69.402344 25.472656 C 69.402344 26.003906 69.070312 26.476562 68.570312 26.652344 L 66.222656 27.480469 C 65.570312 27.710938 64.855469 27.367188 64.625 26.71875 C 64.394531 26.066406 64.738281 25.351562 65.386719 25.121094 L 66.902344 24.589844 L 66.902344 16.25 L 40.152344 7.703125 C 39.007812 7.335938 38.988281 5.71875 40.128906 5.332031 L 48.929688 2.316406 C 49.179688 2.230469 49.453125 2.226562 49.710938 2.308594 L 77.710938 11.144531 C 78.230469 11.308594 78.582031 11.789062 78.582031 12.335938 L 78.582031 42.816406 C 78.582031 43.363281 78.230469 43.84375 77.710938 44.007812 L 49.710938 52.867188 C 49.464844 52.945312 49.199219 52.945312 48.953125 52.867188 L 21.300781 44.007812 C 20.785156 43.84375 20.433594 43.359375 20.433594 42.816406 L 20.433594 38.691406 C 20.433594 38 20.992188 37.441406 21.683594 37.441406 C 22.371094 37.441406 22.933594 38 22.933594 38.691406 L 22.933594 41.90625 L 49.335938 50.363281 L 76.082031 41.902344 L 76.082031 13.253906 L 49.347656 4.816406 Z M 44.511719 6.472656 "/>
<path style=" stroke:none;fill-rule:nonzero;fill:rgb(60%,60%,60%);fill-opacity:1;" d="M 76.957031 11.308594 C 77.613281 11.101562 78.316406 11.464844 78.527344 12.121094 C 78.734375 12.78125 78.367188 13.484375 77.710938 13.691406 L 49.710938 22.550781 C 49.464844 22.628906 49.199219 22.628906 48.953125 22.550781 L 27.585938 15.753906 C 26.9375 15.535156 26.585938 14.839844 26.792969 14.1875 C 27 13.539062 27.691406 13.171875 28.34375 13.371094 L 49.335938 20.046875 Z M 76.957031 11.308594 "/>
<path style=" stroke:none;fill-rule:nonzero;fill:rgb(60%,60%,60%);fill-opacity:1;" d="M 61.808594 26.230469 C 62.464844 26.019531 63.164062 26.378906 63.382812 27.03125 C 63.597656 27.683594 63.246094 28.386719 62.59375 28.605469 L 59.511719 29.625 C 59.128906 29.75 58.710938 29.683594 58.386719 29.449219 C 58.0625 29.214844 57.867188 28.839844 57.867188 28.4375 L 57.867188 19.214844 L 31.121094 10.667969 C 29.96875 10.300781 29.957031 8.671875 31.109375 8.289062 L 41.609375 4.8125 C 42.035156 4.667969 42.503906 4.757812 42.84375 5.058594 C 43.179688 5.355469 43.332031 5.8125 43.238281 6.253906 C 43.148438 6.695312 42.824219 7.050781 42.394531 7.1875 L 35.539062 9.457031 L 59.5 17.109375 C 60.019531 17.277344 60.371094 17.757812 60.371094 18.300781 L 60.371094 26.707031 Z M 61.808594 26.230469 "/>
<path style=" stroke:none;fill-rule:nonzero;fill:rgb(60%,60%,60%);fill-opacity:1;" d="M 22.925781 13.46875 L 22.925781 19.492188 C 22.925781 20.183594 22.367188 20.742188 21.675781 20.742188 C 20.984375 20.742188 20.425781 20.183594 20.425781 19.492188 L 20.425781 12.550781 C 20.425781 12.007812 20.78125 11.523438 21.300781 11.359375 L 31.234375 8.242188 C 31.660156 8.101562 32.128906 8.203125 32.460938 8.507812 C 32.792969 8.808594 32.9375 9.265625 32.839844 9.707031 C 32.738281 10.144531 32.414062 10.496094 31.980469 10.625 Z M 22.925781 13.46875 "/>
<path style=" stroke:none;fill-rule:nonzero;fill:rgb(60%,60%,60%);fill-opacity:1;" d="M 33.484375 22.25 C 34.171875 22.25 34.734375 22.808594 34.734375 23.5 C 34.734375 24.191406 34.171875 24.75 33.484375 24.75 L 11 24.75 C 10.308594 24.75 9.75 24.191406 9.75 23.5 C 9.75 22.808594 10.308594 22.25 11 22.25 Z M 20.984375 27.75 C 21.671875 27.75 22.234375 28.308594 22.234375 29 C 22.234375 29.691406 21.671875 30.25 20.984375 30.25 L 1.5 30.25 C 0.808594 30.25 0.25 29.691406 0.25 29 C 0.25 28.308594 0.808594 27.75 1.5 27.75 Z M 20.984375 27.75 "/>
<path style=" stroke:none;fill-rule:evenodd;fill:rgb(60%,60%,60%);fill-opacity:1;" d="M 8.5 23.5 C 8.5 24.191406 7.941406 24.75 7.25 24.75 C 6.558594 24.75 6 24.191406 6 23.5 C 6 22.808594 6.558594 22.25 7.25 22.25 C 7.941406 22.25 8.5 22.808594 8.5 23.5 Z M 8.5 23.5 "/>
<path style=" stroke:none;fill-rule:evenodd;fill:rgb(60%,60%,60%);fill-opacity:1;" d="M 12 34.5 C 12 35.191406 11.441406 35.75 10.75 35.75 C 10.058594 35.75 9.5 35.191406 9.5 34.5 C 9.5 33.808594 10.058594 33.25 10.75 33.25 C 11.441406 33.25 12 33.808594 12 34.5 Z M 12 34.5 "/>
<path style=" stroke:none;fill-rule:nonzero;fill:rgb(60%,60%,60%);fill-opacity:1;" d="M 26.984375 33.25 C 27.671875 33.25 28.234375 33.808594 28.234375 34.5 C 28.234375 35.191406 27.671875 35.75 26.984375 35.75 L 14.5 35.75 C 13.808594 35.75 13.25 35.191406 13.25 34.5 C 13.25 33.808594 13.808594 33.25 14.5 33.25 Z M 39.484375 0.25 C 40.171875 0.25 40.734375 0.808594 40.734375 1.5 C 40.734375 2.191406 40.171875 2.75 39.484375 2.75 L 20 2.75 C 19.308594 2.75 18.75 2.191406 18.75 1.5 C 18.75 0.808594 19.308594 0.25 20 0.25 Z M 19.984375 6.25 C 20.671875 6.25 21.234375 6.808594 21.234375 7.5 C 21.234375 8.191406 20.671875 8.75 19.984375 8.75 L 10.5 8.75 C 9.808594 8.75 9.25 8.191406 9.25 7.5 C 9.25 6.808594 9.808594 6.25 10.5 6.25 Z M 19.984375 6.25 "/>
<path style=" stroke:none;fill-rule:nonzero;fill:rgb(60%,60%,60%);fill-opacity:1;" d="M 50.75 51.5625 C 50.75 52.253906 50.191406 52.8125 49.5 52.8125 C 48.808594 52.8125 48.25 52.253906 48.25 51.5625 L 48.25 45.378906 C 48.25 44.691406 48.808594 44.128906 49.5 44.128906 C 50.191406 44.128906 50.75 44.691406 50.75 45.378906 Z M 50.75 40.355469 C 50.75 41.046875 50.191406 41.605469 49.5 41.605469 C 48.808594 41.605469 48.25 41.046875 48.25 40.355469 L 48.25 22.5 C 48.25 21.808594 48.808594 21.25 49.5 21.25 C 50.191406 21.25 50.75 21.808594 50.75 22.5 Z M 50.75 40.355469 "/>
</g>
</svg>
