<?xml version="1.0" encoding="UTF-8"?>
<svg xmlns="http://www.w3.org/2000/svg" xmlns:xlink="http://www.w3.org/1999/xlink" width="px" height="px" viewBox="0 0 51 60" version="1.1">
<g id="surface1">
<path style="fill-rule:nonzero;fill:rgb(60%,60%,60%);fill-opacity:1;stroke-width:1;stroke-linecap:butt;stroke-linejoin:miter;stroke:rgb(60%,60%,60%);stroke-opacity:1;stroke-miterlimit:4;" d="M 92.442019 52.8125 C 94.229013 50.617188 94.87883 49.59375 94.87883 49 C 94.87883 48.40625 94.229013 47.390625 92.442019 45.1875 L 92.217678 44.90625 C 90.090303 42.28125 89.100107 40.734375 88.535386 38.640625 C 88.109911 37.070312 88.048024 35.4375 88.241422 33.484375 C 88.318781 32.75 88.39614 32.140625 88.581801 30.9375 C 89.007276 28.15625 89.053692 26.96875 88.806143 26.539062 C 88.550858 26.101562 87.491039 25.53125 85.162531 24.632812 L 84.86083 24.515625 C 81.279105 23.140625 79.70098 22.34375 78.068704 20.726562 C 76.428692 19.101562 75.631893 17.546875 74.231694 13.992188 L 74.115656 13.703125 C 73.210555 11.398438 72.630362 10.34375 72.189415 10.09375 C 71.794884 9.867188 70.61129 9.890625 68.282782 10.234375 L 67.911458 10.289062 C 66.542203 10.492188 65.92333 10.578125 65.180683 10.648438 C 63.200291 10.84375 61.552543 10.78125 59.966682 10.359375 C 57.769684 9.78125 56.307598 8.84375 53.352482 6.492188 C 51.132276 4.71875 50.095665 4.085938 49.5 4.085938 C 49.020374 4.085938 48.076593 4.601562 46.583563 5.75 C 46.359222 5.921875 46.142616 6.09375 45.817708 6.351562 C 42.692402 8.84375 41.230316 9.78125 39.033318 10.359375 C 36.774433 10.960938 34.987439 10.875 31.165901 10.296875 C 28.442862 9.890625 27.243796 9.84375 26.810585 10.09375 C 26.346431 10.359375 25.78171 11.414062 24.768306 13.992188 C 23.375843 17.539062 22.571308 19.101562 20.931296 20.71875 C 19.43053 22.210938 17.736366 23.109375 14.850873 24.242188 C 14.64974 24.320312 14.495021 24.382812 14.13917 24.515625 L 13.837469 24.632812 C 11.508961 25.53125 10.449142 26.101562 10.193857 26.539062 C 9.969516 26.929688 9.984988 28.109375 10.333104 30.40625 L 10.394991 30.78125 C 10.596124 32.132812 10.681219 32.742188 10.758578 33.476562 C 10.951976 35.4375 10.890089 37.070312 10.464614 38.640625 C 9.884421 40.8125 8.932904 42.257812 6.557981 45.1875 C 6.16345 45.671875 5.985524 45.890625 5.815334 46.109375 C 4.647212 47.585938 4.12117 48.523438 4.12117 49 C 4.12117 49.476562 4.647212 50.40625 5.807598 51.882812 C 5.977788 52.101562 6.155714 52.320312 6.418735 52.648438 C 8.932904 55.742188 9.876685 57.179688 10.464614 59.359375 C 10.890089 60.929688 10.951976 62.5625 10.758578 64.515625 C 10.681219 65.25 10.596124 65.867188 10.410463 67.070312 C 9.992724 69.84375 9.946308 71.03125 10.193857 71.460938 C 10.449142 71.898438 11.508961 72.46875 13.837469 73.367188 L 14.13917 73.484375 C 17.720895 74.859375 19.291284 75.65625 20.931296 77.273438 C 22.571308 78.898438 23.368107 80.453125 24.768306 84.007812 L 24.884344 84.296875 C 25.789445 86.601562 26.369638 87.65625 26.810585 87.90625 C 27.205116 88.132812 28.38871 88.109375 30.717218 87.765625 L 31.088542 87.710938 C 32.465533 87.507812 33.084406 87.421875 33.827053 87.351562 C 34.523284 87.28125 35.1731 87.242188 35.799709 87.242188 C 36.944623 87.242188 38.012178 87.367188 39.033318 87.640625 C 41.230316 88.21875 42.684666 89.15625 45.647518 91.507812 C 47.867724 93.28125 48.904335 93.914062 49.5 93.914062 C 50.095665 93.914062 51.132276 93.28125 53.352482 91.507812 L 53.630974 91.289062 C 56.292126 89.179688 57.847044 88.195312 59.958946 87.640625 C 62.225567 87.039062 64.004825 87.125 67.834099 87.703125 C 70.557138 88.109375 71.756204 88.15625 72.189415 87.90625 C 72.653569 87.640625 73.21829 86.578125 74.231694 84.007812 C 75.624157 80.460938 76.428692 78.898438 78.068704 77.28125 C 79.70098 75.65625 81.271369 74.867188 84.86083 73.484375 L 85.154795 73.367188 C 87.491039 72.46875 88.550858 71.898438 88.798407 71.460938 C 89.030484 71.070312 89.015012 69.890625 88.666896 67.59375 L 88.605009 67.21875 C 88.01708 63.359375 87.924249 61.601562 88.52765 59.359375 C 89.115579 57.1875 90.067096 55.742188 92.442019 52.8125 Z M 92.519378 60.414062 C 92.109375 61.921875 92.178998 63.3125 92.674096 66.539062 C 92.712776 66.796875 92.712776 66.796875 92.743719 66.992188 C 93.254289 70.34375 93.277497 71.953125 92.372396 73.507812 C 91.436351 75.109375 90.012944 75.882812 86.655561 77.171875 L 86.35386 77.289062 C 83.313649 78.460938 82.068168 79.085938 80.985141 80.164062 C 79.894378 81.242188 79.260034 82.46875 78.07644 85.484375 C 76.637561 89.15625 75.925858 90.484375 74.254902 91.445312 C 72.61489 92.382812 71.129596 92.328125 67.215227 91.742188 C 63.95841 91.25 62.550475 91.179688 61.026501 91.585938 C 59.641774 91.953125 58.442708 92.710938 56.214767 94.476562 L 55.936275 94.695312 C 52.803232 97.1875 51.488128 98 49.5 98 C 47.511872 98 46.196768 97.1875 43.063725 94.695312 C 40.557292 92.703125 39.412377 91.96875 37.973499 91.585938 C 37.323683 91.40625 36.604243 91.328125 35.799709 91.328125 C 35.320083 91.328125 34.801777 91.359375 34.22932 91.414062 C 33.58724 91.476562 33.014782 91.554688 31.869868 91.726562 L 31.328355 91.804688 C 27.940028 92.3125 26.315487 92.335938 24.745098 91.4375 C 23.120558 90.515625 22.346967 89.101562 21.039599 85.78125 L 20.92356 85.484375 C 19.739966 82.46875 19.105622 81.242188 18.014859 80.164062 C 16.924096 79.085938 15.686351 78.460938 12.638404 77.289062 L 12.344439 77.171875 C 8.987056 75.875 7.563649 75.109375 6.627604 73.507812 C 5.676088 71.882812 5.730239 70.414062 6.325904 66.539062 C 6.511566 65.320312 6.588925 64.757812 6.650812 64.117188 C 6.80553 62.609375 6.759115 61.4375 6.480622 60.414062 C 6.093827 58.984375 5.35118 57.851562 3.339844 55.367188 C 2.929841 54.867188 2.744179 54.632812 2.558517 54.398438 C 0.825674 52.203125 -0.00206801 50.71875 -0.00206801 49 C -0.00206801 47.28125 0.825674 45.796875 2.566253 43.59375 C 2.744179 43.359375 2.929841 43.132812 3.200597 42.796875 C 5.35118 40.148438 6.093827 39.015625 6.480622 37.585938 C 6.759115 36.554688 6.80553 35.390625 6.650812 33.875 C 6.588925 33.234375 6.511566 32.671875 6.341376 31.546875 L 6.256281 31.007812 C 5.745711 27.65625 5.722503 26.046875 6.627604 24.492188 C 7.563649 22.890625 8.987056 22.117188 12.344439 20.828125 L 12.64614 20.710938 L 13.342371 20.4375 C 15.732767 19.507812 17.024663 18.820312 18.014859 17.835938 C 19.105622 16.757812 19.739966 15.53125 20.92356 12.515625 C 22.370175 8.84375 23.074142 7.515625 24.745098 6.554688 C 26.38511 5.617188 27.870404 5.671875 31.784773 6.257812 C 35.04159 6.75 36.449525 6.820312 37.973499 6.414062 C 39.420113 6.03125 40.557292 5.296875 43.063725 3.304688 C 43.574295 2.898438 43.806373 2.71875 44.046186 2.53125 C 46.266391 0.820312 47.767157 0 49.5 0 C 51.488128 0 52.803232 0.8125 55.936275 3.304688 C 58.442708 5.296875 59.587623 6.03125 61.026501 6.414062 C 62.070849 6.695312 63.246706 6.734375 64.778416 6.585938 C 65.420496 6.523438 65.992953 6.445312 67.137868 6.273438 L 67.679381 6.195312 C 71.059972 5.6875 72.684513 5.664062 74.254902 6.5625 C 75.879442 7.484375 76.653033 8.898438 77.960401 12.21875 L 78.07644 12.515625 C 79.260034 15.53125 79.894378 16.757812 80.985141 17.835938 C 82.075904 18.914062 83.313649 19.539062 86.361596 20.710938 L 86.655561 20.828125 C 90.012944 22.125 91.436351 22.890625 92.372396 24.492188 C 93.323912 26.117188 93.269761 27.585938 92.674096 31.460938 C 92.488434 32.679688 92.411075 33.25 92.349188 33.890625 C 92.19447 35.398438 92.240885 36.5625 92.519378 37.585938 C 92.890702 38.960938 93.656556 40.15625 95.435815 42.359375 L 95.660156 42.632812 C 98.174326 45.726562 99.002068 47.03125 99.002068 49 C 99.002068 50.96875 98.174326 52.273438 95.660156 55.375 C 93.64882 57.851562 92.906173 58.984375 92.519378 60.414062 Z M 92.519378 60.414062 " transform="matrix(0.50495,0,0,0.5,0.50495,0.5)"/>
<path style=" stroke:none;fill-rule:evenodd;fill:rgb(60%,60%,60%);fill-opacity:1;" d="M 41.910156 25.5 C 41.910156 16.941406 34.789062 10 26.003906 10 C 17.21875 10 10.097656 16.941406 10.097656 25.5 C 10.097656 34.058594 17.21875 41 26.003906 41 C 34.789062 41 41.910156 34.058594 41.910156 25.5 Z M 41.910156 25.5 "/>
<path style=" stroke:none;fill-rule:nonzero;fill:rgb(100%,100%,100%);fill-opacity:1;" d="M 33.855469 16.558594 C 34.308594 15.953125 35.167969 15.820312 35.785156 16.257812 C 36.082031 16.46875 36.28125 16.789062 36.339844 17.144531 C 36.398438 17.5 36.308594 17.863281 36.09375 18.15625 L 24.046875 34.441406 C 23.824219 34.738281 23.488281 34.9375 23.113281 34.988281 C 22.742188 35.039062 22.363281 34.9375 22.066406 34.707031 L 15.671875 29.71875 C 15.386719 29.496094 15.199219 29.171875 15.15625 28.8125 C 15.117188 28.453125 15.21875 28.09375 15.449219 27.8125 C 15.925781 27.226562 16.789062 27.128906 17.390625 27.59375 L 22.65625 31.699219 Z M 33.855469 16.558594 "/>
<path style=" stroke:none;fill-rule:nonzero;fill:rgb(60%,60%,60%);fill-opacity:1;" d="M 26.003906 9 C 26.582031 9 27.050781 9.457031 27.050781 10.019531 C 27.050781 10.582031 26.582031 11.035156 26.003906 11.035156 C 17.816406 11.035156 11.175781 17.511719 11.175781 25.5 C 11.175781 33.488281 17.816406 39.964844 26.003906 39.964844 C 34.195312 39.964844 40.832031 33.488281 40.832031 25.5 C 40.832031 24.9375 41.300781 24.480469 41.875 24.480469 C 42.453125 24.480469 42.921875 24.9375 42.921875 25.5 C 42.921875 34.613281 35.347656 42 26.003906 42 C 16.664062 42 9.089844 34.613281 9.089844 25.5 C 9.089844 16.386719 16.664062 9 26.003906 9 Z M 26.003906 9 "/>
<path style=" stroke:none;fill-rule:nonzero;fill:rgb(60%,60%,60%);fill-opacity:1;" d="M 38.105469 48.601562 C 38.105469 47.992188 38.617188 47.5 39.25 47.5 C 39.882812 47.5 40.394531 47.992188 40.394531 48.601562 L 40.394531 58.898438 C 40.394531 59.605469 39.710938 60.132812 38.992188 59.972656 L 26.105469 57.085938 L 13.015625 59.972656 C 12.296875 60.128906 11.613281 59.605469 11.613281 58.898438 L 11.613281 52.035156 C 11.613281 51.425781 12.125 50.929688 12.761719 50.929688 C 13.394531 50.929688 13.90625 51.425781 13.90625 52.035156 L 13.90625 57.511719 L 25.851562 54.878906 C 26.019531 54.84375 26.199219 54.84375 26.367188 54.882812 L 38.105469 57.507812 Z M 12.875 47.5 C 12.542969 47.5 12.21875 47.632812 11.984375 47.867188 C 11.746094 48.101562 11.613281 48.417969 11.613281 48.75 C 11.613281 49.078125 11.75 49.402344 11.984375 49.636719 C 12.21875 49.867188 12.542969 50 12.875 50 C 13.207031 50 13.535156 49.867188 13.769531 49.636719 C 14.003906 49.402344 14.136719 49.078125 14.136719 48.75 C 14.136719 48.417969 14.003906 48.101562 13.769531 47.867188 C 13.53125 47.632812 13.210938 47.5 12.875 47.5 Z M 12.875 47.5 "/>
<path style=" stroke:none;fill-rule:nonzero;fill:rgb(60%,60%,60%);fill-opacity:1;" d="M 30.042969 9 C 29.710938 9 29.386719 9.132812 29.152344 9.367188 C 28.917969 9.601562 28.78125 9.917969 28.78125 10.25 C 28.78125 10.578125 28.917969 10.902344 29.152344 11.136719 C 29.386719 11.367188 29.710938 11.5 30.042969 11.5 C 30.375 11.5 30.703125 11.367188 30.9375 11.136719 C 31.171875 10.902344 31.308594 10.578125 31.308594 10.25 C 31.304688 9.917969 31.171875 9.601562 30.9375 9.367188 C 30.699219 9.132812 30.378906 9 30.042969 9 Z M 30.042969 9 "/>
</g>
</svg>
