<?xml version="1.0" encoding="UTF-8"?>
<svg xmlns="http://www.w3.org/2000/svg" xmlns:xlink="http://www.w3.org/1999/xlink" width="px" height="px" viewBox="0 0 63 60" version="1.1">
<g id="surface1">
<path style=" stroke:none;fill-rule:nonzero;fill:rgb(60%,60%,60%);fill-opacity:1;" d="M 17.738281 58.714844 L 6.511719 58.714844 C 5.21875 58.714844 4.171875 57.667969 4.171875 56.378906 L 4.171875 37.3125 C 4.171875 36.019531 5.21875 34.972656 6.511719 34.972656 L 17.738281 34.972656 C 19.03125 34.972656 20.078125 36.019531 20.078125 37.3125 L 20.078125 56.378906 C 20.078125 57.667969 19.03125 58.714844 17.738281 58.714844 Z M 17.738281 58.714844 "/>
<path style=" stroke:none;fill-rule:nonzero;fill:rgb(100%,100%,100%);fill-opacity:1;" d="M 55.070312 41.875 L 51.410156 41.875 C 52.960938 41.875 54.214844 40.617188 54.214844 39.066406 C 54.214844 37.515625 52.960938 36.257812 51.410156 36.257812 L 31.125 36.257812 L 32.101562 35.007812 L 32.101562 29.101562 L 26.40625 31.199219 L 20.078125 37.546875 L 20.078125 54.738281 L 23.304688 57.554688 C 24.164062 58.304688 25.265625 58.714844 26.40625 58.714844 L 48.515625 58.714844 C 50.089844 58.714844 51.414062 57.429688 51.382812 55.855469 C 51.355469 54.328125 50.105469 53.101562 48.578125 53.101562 L 52.503906 53.101562 C 54.078125 53.101562 55.40625 51.816406 55.375 50.242188 C 55.34375 48.710938 54.097656 47.488281 52.566406 47.488281 L 55.070312 47.488281 C 56.621094 47.488281 57.878906 46.230469 57.878906 44.679688 C 57.878906 43.128906 56.621094 41.875 55.070312 41.875 Z M 55.070312 41.875 "/>
<path style=" stroke:none;fill-rule:nonzero;fill:rgb(60%,60%,60%);fill-opacity:1;" d="M 12.125 52.867188 C 11.816406 52.867188 11.515625 52.992188 11.296875 53.210938 C 11.078125 53.429688 10.957031 53.726562 10.953125 54.039062 C 10.953125 54.347656 11.078125 54.648438 11.296875 54.863281 C 11.515625 55.082031 11.8125 55.207031 12.125 55.207031 C 12.429688 55.207031 12.734375 55.082031 12.949219 54.863281 C 13.167969 54.644531 13.292969 54.347656 13.292969 54.039062 C 13.292969 53.730469 13.167969 53.429688 12.949219 53.210938 C 12.730469 52.992188 12.433594 52.871094 12.125 52.867188 Z M 57.09375 22.554688 C 56.785156 22.554688 56.484375 22.679688 56.265625 22.898438 C 56.046875 23.117188 55.921875 23.414062 55.921875 23.722656 C 55.921875 24.03125 56.046875 24.332031 56.265625 24.550781 C 56.484375 24.769531 56.78125 24.890625 57.09375 24.894531 C 57.402344 24.894531 57.703125 24.769531 57.917969 24.550781 C 58.136719 24.332031 58.261719 24.035156 58.261719 23.722656 C 58.261719 23.414062 58.136719 23.117188 57.917969 22.898438 C 57.699219 22.679688 57.402344 22.554688 57.09375 22.554688 Z M 57.09375 22.554688 "/>
<path style=" stroke:none;fill-rule:nonzero;fill:rgb(60%,60%,60%);fill-opacity:1;" d="M 62.542969 13.84375 C 62.324219 13.625 62.027344 13.5 61.714844 13.5 L 32.945312 13.503906 C 32.296875 13.503906 31.773438 14.027344 31.773438 14.671875 L 31.773438 27.65625 C 30.164062 28.21875 28.601562 28.90625 27.097656 29.707031 C 25.628906 30.492188 24.769531 31.199219 24.347656 31.621094 L 20.632812 35.335938 C 19.980469 34.375 18.898438 33.804688 17.738281 33.804688 L 6.511719 33.804688 C 4.574219 33.804688 3.003906 35.375 3 37.3125 L 3 56.378906 C 3.003906 58.3125 4.574219 59.882812 6.511719 59.886719 L 17.738281 59.886719 C 19.382812 59.886719 20.765625 58.75 21.144531 57.222656 L 22.535156 58.433594 C 23.609375 59.371094 24.984375 59.886719 26.410156 59.886719 L 61.71875 59.886719 C 62.363281 59.886719 62.886719 59.363281 62.886719 58.714844 L 62.886719 14.671875 C 62.886719 14.359375 62.761719 14.0625 62.542969 13.84375 Z M 17.738281 57.546875 L 6.511719 57.546875 C 5.863281 57.546875 5.339844 57.023438 5.339844 56.378906 L 5.339844 37.3125 C 5.339844 36.667969 5.863281 36.140625 6.511719 36.140625 L 10.953125 36.140625 L 10.953125 49.617188 C 10.972656 50.25 11.492188 50.753906 12.125 50.753906 C 12.757812 50.753906 13.277344 50.25 13.292969 49.617188 L 13.292969 36.140625 L 17.738281 36.140625 C 18.382812 36.140625 18.910156 36.667969 18.910156 37.3125 L 18.910156 56.378906 C 18.910156 57.023438 18.382812 57.546875 17.738281 57.546875 Z M 24.070312 56.671875 L 21.246094 54.207031 L 21.246094 38.03125 L 25.035156 34.1875 C 26.109375 33.257812 27.003906 32.589844 27.726562 32.183594 C 29.25 31.324219 30.597656 30.726562 31.769531 30.386719 L 31.769531 33.53125 L 30.636719 36.546875 C 30.769531 37.066406 31.234375 37.425781 31.769531 37.425781 L 51.410156 37.429688 C 52.3125 37.429688 53.046875 38.164062 53.046875 39.066406 C 53.046875 39.96875 52.3125 40.703125 51.410156 40.703125 L 39.625 40.703125 C 38.988281 40.71875 38.480469 41.238281 38.480469 41.875 C 38.480469 42.511719 38.988281 43.03125 39.625 43.042969 L 55.070312 43.042969 C 55.972656 43.042969 56.707031 43.777344 56.707031 44.679688 C 56.707031 45.585938 55.972656 46.316406 55.070312 46.320312 L 39.625 46.320312 C 38.988281 46.332031 38.480469 46.851562 38.480469 47.488281 C 38.480469 48.125 38.988281 48.644531 39.625 48.65625 L 52.566406 48.65625 C 53.472656 48.660156 54.203125 49.390625 54.203125 50.296875 C 54.203125 51.199219 53.472656 51.933594 52.566406 51.933594 L 39.625 51.933594 C 38.988281 51.945312 38.480469 52.464844 38.480469 53.101562 C 38.480469 53.738281 38.988281 54.257812 39.625 54.273438 L 48.578125 54.273438 C 49.480469 54.273438 50.214844 55.007812 50.214844 55.910156 C 50.214844 56.8125 49.480469 57.546875 48.578125 57.546875 L 26.40625 57.546875 C 25.550781 57.546875 24.71875 57.234375 24.070312 56.671875 Z M 52.199219 57.546875 C 52.425781 57.046875 52.554688 56.492188 52.554688 55.910156 C 52.554688 55.34375 52.433594 54.785156 52.199219 54.273438 L 52.566406 54.273438 C 54.761719 54.273438 56.542969 52.488281 56.542969 50.296875 C 56.542969 49.65625 56.390625 49.050781 56.121094 48.515625 C 57.804688 48.054688 59.046875 46.507812 59.046875 44.679688 C 59.046875 43.828125 58.773438 42.996094 58.261719 42.3125 L 58.261719 27.488281 C 58.25 26.851562 57.730469 26.339844 57.09375 26.339844 C 56.457031 26.339844 55.9375 26.851562 55.921875 27.488281 L 55.921875 40.796875 C 55.640625 40.734375 55.355469 40.703125 55.070312 40.703125 C 55.257812 40.203125 55.386719 39.648438 55.386719 39.066406 C 55.386719 36.875 53.601562 35.089844 51.410156 35.089844 L 34.113281 35.089844 L 34.113281 16.339844 L 60.546875 16.335938 L 60.546875 57.546875 Z M 52.199219 57.546875 "/>
<path style=" stroke:none;fill-rule:evenodd;fill:rgb(60%,60%,60%);fill-opacity:1;" d="M 38.003906 16 L 44.503906 16 L 44.503906 35.5 L 38.003906 35.5 Z M 38.003906 16 "/>
<path style=" stroke:none;fill-rule:nonzero;fill:rgb(60%,60%,60%);fill-opacity:1;" d="M 13.203125 31.636719 C 12.964844 31.917969 12.617188 32.078125 12.25 32.078125 C 11.882812 32.078125 11.535156 31.917969 11.296875 31.636719 C 3.945312 22.992188 0.25 16.605469 0.25 12.25 C 0.25 5.621094 5.621094 0.25 12.25 0.25 C 18.878906 0.25 24.25 5.621094 24.25 12.25 C 24.25 16.605469 20.554688 22.992188 13.203125 31.636719 Z M 21.75 12.25 C 21.75 7.003906 17.496094 2.75 12.25 2.75 C 7.003906 2.75 2.75 7.003906 2.75 12.25 C 2.75 15.644531 5.90625 21.257812 12.25 28.886719 C 18.59375 21.257812 21.75 15.644531 21.75 12.25 Z M 21.75 12.25 "/>
<path style=" stroke:none;fill-rule:nonzero;fill:rgb(60%,60%,60%);fill-opacity:1;" d="M 12.25 18.125 C 9.003906 18.125 6.375 15.496094 6.375 12.25 C 6.375 9.003906 9.003906 6.375 12.25 6.375 C 15.496094 6.375 18.125 9.003906 18.125 12.25 C 18.125 15.496094 15.496094 18.125 12.25 18.125 Z M 12.25 15.875 C 14.253906 15.875 15.875 14.253906 15.875 12.25 C 15.875 10.246094 14.253906 8.625 12.25 8.625 C 10.246094 8.625 8.625 10.246094 8.625 12.25 C 8.625 14.253906 10.246094 15.875 12.25 15.875 Z M 12.25 15.875 "/>
</g>
</svg>
