<?xml version="1.0" encoding="UTF-8"?>
<svg xmlns="http://www.w3.org/2000/svg" xmlns:xlink="http://www.w3.org/1999/xlink" width="px" height="px" viewBox="0 0 59 60" version="1.1">
<g id="surface1">
<path style=" stroke:none;fill-rule:evenodd;fill:rgb(60%,60%,60%);fill-opacity:1;" d="M 23.484375 4.089844 L 47.554688 11.550781 L 47.554688 23.230469 L 39.59375 25.800781 L 39.59375 14.699219 L 14.535156 6.777344 Z M 23.484375 4.089844 "/>
<path style=" stroke:none;fill-rule:nonzero;fill:rgb(60%,60%,60%);fill-opacity:1;" d="M 58.503906 9.730469 C 58.453125 9.519531 58.339844 9.332031 58.175781 9.1875 C 58.105469 9.117188 58.027344 9.054688 57.941406 9 C 57.890625 8.972656 57.839844 8.949219 57.789062 8.925781 C 57.765625 8.914062 48.417969 5.957031 29.746094 0.0585938 C 29.496094 -0.0195312 29.226562 -0.0195312 28.976562 0.0585938 L 1.046875 8.871094 C 0.519531 9.035156 0.160156 9.519531 0.15625 10.070312 L 0.15625 40.28125 C 0.15625 40.828125 0.519531 41.316406 1.046875 41.480469 L 10.855469 44.769531 C 11.019531 44.820312 11.296875 44.089844 11.675781 42.574219 L 2.695312 39.359375 L 2.695312 10.988281 L 11.160156 8.320312 L 34.902344 15.8125 L 29.359375 17.558594 L 8.15625 10.871094 C 7.488281 10.664062 6.773438 11.027344 6.5625 11.691406 C 6.347656 12.351562 6.71875 13.0625 7.386719 13.273438 L 28.089844 19.800781 L 28.089844 34.761719 C 28.101562 35.449219 28.667969 35.996094 29.359375 35.996094 C 30.050781 35.996094 30.613281 35.449219 30.628906 34.761719 L 30.628906 19.800781 L 37.820312 17.535156 L 37.820312 25.886719 C 37.824219 26.285156 38.015625 26.664062 38.339844 26.898438 C 38.667969 27.136719 39.085938 27.207031 39.472656 27.085938 L 42.433594 26.148438 C 43.101562 25.9375 43.472656 25.230469 43.257812 24.566406 C 43.046875 23.90625 42.332031 23.539062 41.664062 23.75 L 40.355469 24.164062 L 40.355469 16.734375 L 46.914062 14.664062 L 46.914062 22.09375 L 45.472656 22.546875 C 44.878906 22.734375 44.507812 23.324219 44.601562 23.9375 C 44.699219 24.550781 45.230469 25.003906 45.855469 25.007812 C 45.984375 25.007812 46.113281 24.984375 46.234375 24.945312 L 48.5625 24.214844 C 49.09375 24.046875 49.453125 23.5625 49.453125 23.011719 L 49.453125 13.859375 L 56.019531 11.792969 L 56.019531 39.359375 L 54.367188 39.882812 C 53.925781 40 53.578125 40.34375 53.464844 40.785156 C 53.347656 41.222656 53.480469 41.691406 53.8125 42.007812 C 54.144531 42.320312 54.621094 42.4375 55.058594 42.304688 C 55.074219 42.300781 55.945312 42.027344 57.667969 41.480469 C 58.199219 41.316406 58.558594 40.828125 58.558594 40.28125 L 58.558594 10.070312 C 58.554688 9.957031 58.535156 9.84375 58.503906 9.734375 Z M 39.089844 14.488281 L 15.347656 7 L 20.261719 5.449219 L 44 12.9375 Z M 48.1875 11.617188 L 24.449219 4.128906 L 29.359375 2.578125 L 53.097656 10.070312 Z M 48.1875 11.617188 "/>
<path style=" stroke:none;fill-rule:nonzero;fill:rgb(60%,60%,60%);fill-opacity:1;" d="M 6.730469 31.5 C 6.078125 31.5 5.546875 32.023438 5.546875 32.671875 L 5.546875 41.191406 C 5.546875 41.835938 6.078125 42.363281 6.730469 42.363281 C 7.382812 42.363281 7.910156 41.835938 7.910156 41.191406 L 7.910156 32.671875 C 7.910156 32.023438 7.382812 31.5 6.730469 31.5 Z M 6.730469 28 C 6.417969 28 6.113281 28.125 5.894531 28.34375 C 5.671875 28.5625 5.546875 28.863281 5.546875 29.171875 C 5.546875 29.480469 5.671875 29.78125 5.894531 30 C 6.117188 30.21875 6.414062 30.34375 6.730469 30.34375 C 7.042969 30.34375 7.34375 30.21875 7.5625 30.003906 C 7.785156 29.78125 7.910156 29.480469 7.910156 29.171875 C 7.910156 28.863281 7.785156 28.5625 7.5625 28.34375 C 7.34375 28.125 7.042969 28 6.730469 28 Z M 11.265625 42.5 C 10.957031 42.5 10.652344 42.625 10.433594 42.84375 C 10.210938 43.0625 10.085938 43.363281 10.085938 43.671875 C 10.085938 43.980469 10.210938 44.28125 10.433594 44.5 C 10.652344 44.71875 10.953125 44.84375 11.265625 44.84375 C 11.582031 44.84375 11.878906 44.71875 12.101562 44.503906 C 12.324219 44.28125 12.449219 43.980469 12.449219 43.671875 C 12.449219 43.363281 12.324219 43.0625 12.101562 42.84375 C 11.878906 42.625 11.582031 42.5 11.265625 42.5 Z M 11.265625 42.5 "/>
<path style=" stroke:none;fill-rule:nonzero;fill:rgb(60%,60%,60%);fill-opacity:1;" d="M 49.671875 26.734375 C 48.96875 26.734375 48.402344 27.296875 48.402344 27.992188 L 48.402344 41.117188 C 48.394531 47.371094 43.28125 52.4375 36.976562 52.445312 L 21.742188 52.445312 C 21.039062 52.445312 20.472656 53.007812 20.472656 53.703125 L 20.472656 56.320312 L 11.257812 49.929688 L 20.472656 43.535156 L 20.472656 46.152344 C 20.472656 46.847656 21.039062 47.410156 21.742188 47.410156 L 33.167969 47.410156 C 37.371094 47.40625 40.78125 44.027344 40.785156 39.859375 L 40.785156 39.324219 C 40.769531 38.636719 40.207031 38.089844 39.515625 38.089844 C 38.824219 38.089844 38.257812 38.636719 38.246094 39.324219 L 38.246094 39.859375 C 38.246094 42.636719 35.972656 44.894531 33.167969 44.894531 L 23.011719 44.894531 L 23.011719 41.117188 C 23.007812 40.648438 22.746094 40.21875 22.328125 40 C 21.90625 39.785156 21.402344 39.816406 21.011719 40.085938 L 8.316406 48.898438 C 7.976562 49.132812 7.777344 49.519531 7.777344 49.929688 C 7.777344 50.339844 7.976562 50.722656 8.316406 50.960938 L 21.011719 59.769531 C 21.402344 60.039062 21.90625 60.074219 22.328125 59.855469 C 22.746094 59.640625 23.011719 59.210938 23.011719 58.738281 L 23.011719 54.964844 L 36.976562 54.964844 C 44.683594 54.953125 50.929688 48.761719 50.941406 41.117188 L 50.941406 27.992188 C 50.941406 27.296875 50.371094 26.734375 49.671875 26.734375 Z M 49.671875 26.734375 "/>
<path style=" stroke:none;fill-rule:evenodd;fill:rgb(60%,60%,60%);fill-opacity:1;" d="M 10.085938 20.5 L 22.785156 20.5 L 22.785156 23.757812 L 16.125 40 L 12.023438 40 L 18.488281 24.175781 L 10.085938 24.175781 Z M 10.085938 20.5 "/>
</g>
</svg>
