<?xml version="1.0" encoding="UTF-8"?>
<svg width="1265px" height="535px" viewBox="0 0 1265 535" version="1.1" xmlns="http://www.w3.org/2000/svg" xmlns:xlink="http://www.w3.org/1999/xlink">
    <!-- Generator: Sketch 61 (89581) - https://sketch.com -->
    <title>BENLA</title>
    <desc>Created with Sketch.</desc>
    <g id="Page-1" stroke="none" stroke-width="1" fill="none" fill-rule="evenodd">
        <g id="A0" transform="translate(-10456.000000, -18189.000000)" fill-rule="nonzero">
            <g id="BENLA" transform="translate(10456.000000, 18188.728771)">
                <g id="paliz_teb" transform="translate(57.500000, 445.625000)" fill="#000000">
                    <path d="M171.0625,18.54375 L194.83875,50.700625 L39.200625,48.113125 L10.766875,34.615 L0,31.323125 C0,31.323125 130.165625,18.385625 162.3225,0.43125 L171.0625,18.54375 Z" id="Path"></path>
                </g>
                <path d="M1017.75,142.700625 C1114.0625,138.301875 1175.875,147.530625 1175.875,147.530625 L1175.875,147.530625 C1175.875,147.530625 794.092935,283.981814 669.166997,362.25 C545.490319,439.735504 485.442838,518.341266 216.772537,533.979213 L208.566875,534.43375 C208.566875,534.43375 122.278648,535.89839 49.0748581,503.198063 C32.3171004,496.045474 15.8877691,487.237393 0.560625,476.401875 L0.659625,476.413258 L0.618125,476.401875 L0.689984817,476.40227 C0.666030568,476.387767 0.642077295,476.37326 0.618125,476.35875 L0.859625,476.402258 L1.80887134,476.410399 C1.41208522,476.393616 1.01516949,476.376401 0.618125,476.35875 L47.858625,476.469258 L46.848625,476.510258 L232.745625,476.948125 L233.209625,476.748258 L232.745625,476.905 L47.858625,476.469258 L52.0331475,476.302179 C243.621072,467.55773 393.883764,367.338663 397.127708,365.161021 L397.18125,365.125 C617.909375,192.165 862.571875,149.773125 1017.75,142.700625 Z" id="Combined-Shape" fill="#00A7AB"></path>
                <path d="M173.10375,0.83375 C216.63125,7.288125 232.745625,16.9625 232.745625,16.9625 C259.340865,33.2112431 269.686452,54.2012574 271.228771,75.5191407 L271.443125,74.95125 C277.725,135.1825 232.745625,174.13875 232.745625,174.13875 L232.745625,174.13875 L230.318125,175.219625 L230.400125,175.427625 L232.745625,174.13875 C232.745625,174.13875 294.319371,207.193057 282.658038,265.179782 C278.533405,290.073889 262.758113,339.090721 202.367407,356.018869 L202.414375,356.083125 C192.59625,360.8125 169.13625,362.25 169.13625,362.25 L169.13625,362.25 L169.240125,361.933625 L155.567475,361.934166 C144.155845,362.449233 136.432225,361.969197 135.914601,361.935578 L135.886875,361.93375 L0.618125,361.93375 L0.618125,0.83375 Z M588.210625,0.83375 L718.717125,224.412625 L708.31375,0.83375 L777.63,0.83375 L790.524375,347.429375 L705.09375,347.429375 L591.889125,147.935625 L597.08,355.49375 L516.479375,355.49375 L508.415,0.83375 L588.210625,0.83375 Z M487.413125,0.790625 L489.023125,74.95125 L352.920625,74.95125 C350.716957,73.5797459 348.691107,72.584267 346.829163,71.9058714 L352.96375,74.994375 C352.96375,74.994375 331.4875,70.5525 326.255,87.931875 L326.220195,87.8269015 C326.214532,87.8676402 326.211875,87.88875 326.211875,87.88875 L326.211875,87.88875 L326.211875,121.799375 C326.107579,122.035326 326.010101,122.268832 325.919245,122.499908 L326.3125,121.741875 C326.3125,121.741875 326.762473,132.79031 332.059902,138.366578 C335.091905,140.276234 338.116356,141.257046 338.934317,141.502574 C339.037212,141.505967 339.143167,141.5075 339.25,141.5075 L339.161125,141.564625 L477.781875,141.565 L477.781875,200.79 L352.96375,200.79 C352.86525,200.780571 352.767042,200.77175 352.669128,200.76353 L346.844125,201.414625 L347.092779,201.355929 C349.270724,200.85339 351.076867,200.739467 352.087789,200.722105 C348.944614,200.53142 346.110743,200.961371 343.583969,201.778358 L346.844125,201.414625 L346.762508,201.434467 C339.21527,203.28274 327.59475,209.81635 328.67,232.601875 L328.668125,232.599625 L329.977125,260.779625 L329.977125,260.780625 L330.57143,273.586202 C332.131723,279.22359 336.024216,284.608248 345.186875,284.696875 L344.983125,284.753625 L498.8125,286.1775 L498.8125,355.306875 L256.193125,355.306625 L255.875,355.49375 C255.952609,355.432175 256.030136,355.370443 256.10758,355.308553 L255.73125,355.306875 C264.736609,346.837752 272.330793,338.608305 278.675834,330.630802 C286.253895,319.964935 292.271448,308.900736 296.544729,300.104946 L296.5275,299.92 C318.427482,231.969706 287.121085,198.345169 267.239975,184.601503 C266.042157,183.872107 261.514298,181.121406 257.023578,178.538699 C254.514311,177.290784 253,176.72625 253,176.72625 L253,176.72625 L254.123119,176.894161 C253.897984,176.768647 253.67495,176.64489 253.454497,176.523203 L253.043125,176.72625 L253.132185,176.34576 C251.474888,175.435843 249.980576,174.654522 248.86,174.13875 L255.90375,164.464375 L255.914125,164.482625 L255.918125,164.464375 C344.369429,96.4881725 251.471425,3.40615428 248.927364,0.88603898 C248.927469,0.88799 248.923898,0.885475992 248.920395,0.883011055 L248.788125,0.790625 L487.413125,0.790625 Z M861.465,0.83375 L867.707125,269.645625 L969.464375,269.64625 L954.96,347.429375 L801.80875,347.429375 L790.524375,0.83375 L861.465,0.83375 Z M1156.46875,0.83375 L1264.4825,340.989375 L1188.71188,340.989375 L1170.11513,269.645625 L1061.28613,269.645625 L1042.015,340.989375 L980.74875,340.989375 L1072.64813,0.83375 L1156.46875,0.83375 Z M167.358784,200.730885 L68.324125,200.731625 L68.3244013,282.699237 C68.8371375,286.543379 70.5765967,291.108501 75.7440281,292.618234 L76.093125,292.616625 L75.6125,292.574375 L83.966125,292.616625 L133.899125,292.616625 L139.049375,292.574375 L140.55158,292.541337 C174.09619,291.657373 190.93482,281.339556 198.255991,274.860357 C199.904328,273.228866 201.504909,271.49503 203.007592,269.66536 C203.014753,269.651744 203.018125,269.64625 203.018125,269.64625 L203.018125,269.64625 C211.107542,259.796044 216.352736,247.165719 211.148615,232.539418 L211.125625,232.601875 C210.428946,230.658437 209.637498,228.8263 208.761459,227.09934 C207.713468,225.082084 206.456237,223.02556 204.976683,220.93682 C195.609102,208.187065 180.841131,202.794748 167.358784,200.730885 Z M1109.24706,92.0945653 L1077.3823,210.059342 C1078.09091,212.716749 1080.01418,214.300941 1082.21332,215.237805 L1149.55558,215.237476 C1154.09985,212.194045 1153.22095,205.333883 1152.55113,202.259445 L1122.96346,88.7519642 C1120.84668,81.6897474 1115.55324,69.1335001 1109.24706,92.0945653 Z M142.343125,62.085625 L83.290125,62.085625 L83.375,62.1 C83.375,62.1 69.3292297,61.1511421 68.3235756,76.8038436 L68.3238969,128.781535 C69.0524032,136.417325 72.5667809,147.530625 86.85375,147.530625 L142.37,147.530625 C171.50456,147.530625 185.632544,138.839209 191.782252,133.106737 C193.323401,131.480862 194.682256,129.857212 195.876732,128.23844 C195.892653,128.200809 195.9025,128.181875 195.9025,128.181875 L195.9025,128.181875 L195.903989,128.201463 C207.539337,112.400677 203.521074,97.0669068 195.846307,85.1523069 L195.845,85.286875 C195.82268,85.2043625 195.799959,85.1221403 195.776842,85.0402075 C191.651788,78.6708815 186.489962,73.2836006 182.133643,69.3338456 C166.017699,60.7008365 142.3125,62.1 142.3125,62.1 L142.3125,62.1 L142.343125,62.085625 Z" id="Combined-Shape" fill="#283C57"></path>
            </g>
        </g>
    </g>
</svg>