<?xml version="1.0" encoding="UTF-8"?>
<svg width="1265px" height="1103px" viewBox="0 0 1265 1103" version="1.1" xmlns="http://www.w3.org/2000/svg" xmlns:xlink="http://www.w3.org/1999/xlink">
    <!-- Generator: Sketch 61 (89581) - https://sketch.com -->
    <title>Paliz Teb Shafagh</title>
    <desc>Created with Sketch.</desc>
    <g id="Page-1" stroke="none" stroke-width="1" fill="none" fill-rule="evenodd">
        <g id="A0" transform="translate(-12121.000000, -19166.000000)" fill-rule="nonzero">
            <g id="Paliz-Teb-Shafagh" transform="translate(12121.000000, 19166.000000)">
                <path d="M10.4182785,25.0905328 C0.918169654,-4.02461215 39.1863314,0.447946176 39.1863314,0.447946176 L39.1863314,0.447946176 L661.383569,0.447946176 C661.482939,0.67817478 661.588166,0.904660701 661.699029,1.12726126 C678.937425,3.36073775 731.738945,11.7500551 778.64041,35.2513209 C898.022887,84.9184364 982.328045,186.058924 982.328045,186.058924 C1058.67909,273.336076 1089.67629,378.017724 1100.87955,465.678572 L1100.91924,465.709119 C1111.85274,544.056705 1110.29665,612.700994 1099.80725,672.779167 L1099.81537,672.761402 C1099.77046,672.964992 1099.72546,673.168485 1099.68038,673.371879 L1099.70026,673.389903 C1087.20284,744.489554 1062.18647,803.574035 1030.5628,852.533693 L1030.56572,852.515989 C999.209324,902.305738 955.126303,951.071202 893.262798,992.134274 L889.904795,994.32405 C804.283587,1055.75805 726.280646,1075.1132 723.086753,1075.88848 C689.794012,1086.66862 653.246697,1095.29123 614.849849,1099.2189 L614.854108,1099.20935 C582.244771,1103.17773 478.268265,1111.13002 424.921742,1060.18109 L424.921185,1058.3659 L423.936261,1057.36799 C423.936261,1057.36799 424.268066,1057.39606 424.913621,1057.44663 L424.921185,1057.3319 L423.936261,1057.33215 L423.938234,566.209531 C384.485932,559.955234 323.701325,529.461206 276.526133,412.433003 C276.526133,412.433003 256.176514,377.659943 272.577929,370.41217 C272.767635,370.277132 272.962394,370.141642 273.16303,370.007411 C273.492758,369.766009 273.695113,369.663102 273.695113,369.663102 L273.695113,369.663102 L274.798291,369.660369 C277.667816,368.944523 281.381619,368.878399 286.120838,369.659626 L541.865078,369.661103 C645.14876,362.354666 659.224464,380.587617 660.563991,382.855149 C666.545075,386.047656 671.710664,389.966891 675.576877,394.766255 C690.435575,408.606946 706.489491,430.387666 721.303455,464.564584 C725.99883,475.001156 730.494151,486.805115 734.393998,500.016581 C743.314465,524.479156 754.045948,553.95503 754.843059,556.367068 C756.208937,560.500178 756.240157,564.650849 722.442904,564.733449 L721.408357,564.734703 L721.408357,564.734703 L626.658185,564.733896 L626.658105,1053.95278 C626.6641,1053.95211 626.670095,1053.95144 626.67609,1053.95076 L626.6767,1053.74858 L626.6767,1053.74858 L626.680185,1053.7479 L626.6767,1053.73067 C685.683268,1045.93294 734.650305,1028.1836 775.285931,1004.07808 L775.297871,1004.07784 C809.894518,980.48084 838.497989,955.736192 862.13323,930.753896 C946.486282,832.187091 966.936442,703.034329 971.892498,645.192291 C973.288349,599.562601 969.997402,560.155616 966.685794,533.605914 L966.686646,533.628842 C958.452754,497.710261 941.738356,457.451061 934.826788,441.571579 L934.832414,441.580657 C929.531992,431.474605 923.429917,420.425352 916.528782,408.793799 L916.532551,408.769316 C794.686567,223.324768 576.551847,202.245679 563.257564,201.12508 L266.534313,201.135901 C88.891942,208.113479 38.7528668,117.296171 24.704434,69.9428792 C16.7684664,49.6440229 12.5027994,33.8814625 10.5255293,25.5419649 Z M218.239377,974.96381 C217.732484,974.704715 217.226745,974.444509 216.722157,974.183203 L218.239377,976.755595 C215.085961,974.511063 211.978119,972.258705 208.915194,969.99915 C130.327829,926.520763 80.6895878,856.04134 49.7111295,790.485829 C16.3964632,727.75071 5.55796308,672.373332 2.16904705,638.744325 C1.82710501,636.618203 1.56050605,634.848536 1.36094604,633.463883 L0.877974504,633.467564 L0.875302079,620.433987 C0.488734766,610.299071 0.877974504,604.673584 0.877974504,604.673584 L0.877974504,604.673584 L0.877184509,341.655896 L0.860056657,341.657507 L0.860056657,63.6800283 C2.50191702,80.3193301 8.80547644,96.7782797 17.9735755,112.544667 C73.8357424,199.155547 158.997257,222.139989 188.088757,227.633741 L188.925053,227.7886 C200.273401,227.137436 207.346019,230.798987 211.722049,236.048516 C213.647036,237.950974 215.05624,240.036487 216.079852,242.150218 C216.249055,242.304386 216.425651,242.45099 216.608853,242.589731 C217.224669,244.313764 217.69596,246.085266 218.018223,247.885881 C218.762545,251.415833 218.706917,254.599804 218.535374,256.621258 C218.746758,261.434575 218.239377,264.89745 218.239377,264.89745 L218.239377,264.89745 L218.221185,264.912896 L218.221185,278.173896 L218.239377,278.174575 L218.239635,285.720076 C218.318716,287.687529 218.239377,288.943201 218.239377,288.943201 Z M614.274185,209.642896 L614.527239,209.714513 C624.145723,212.444421 678.180476,227.835101 691.485552,232.824504 L691.485552,249.147663 C691.485552,249.147663 627.745033,214.222482 614.450016,209.700538 L614.274185,209.642896 Z M1143.58867,0.447946176 C1210.23657,0.447946176 1264.26537,54.476745 1264.26537,121.124646 C1264.26537,187.772547 1210.23657,241.801346 1143.58867,241.801346 C1076.94077,241.801346 1022.91197,187.772547 1022.91197,121.124646 C1022.91197,54.476745 1076.94077,0.447946176 1143.58867,0.447946176 Z" id="Combined-Shape" fill="#283C57"></path>
                <path d="M615.700136,210.325371 L632.79201,216.973428 C644.985036,221.846217 656.780302,226.808459 668.188539,231.854977 L668.134633,231.847222 C649.703028,221.111344 638.07245,215.444193 638.07245,215.444193 C843.229555,272.198024 924.07581,394.237862 955.069478,494.317019 L955.098746,494.31372 C974.179904,547.300777 977.643559,600.81585 971.558722,651.931027 L971.534761,651.927283 C960.23157,814.482583 892.661155,914.275517 819.274391,973.129854 C727.13806,1047.02087 626.6767,1057.33215 626.6767,1057.33215 L626.6767,1057.33215 L626.6767,871.201558 L685.841447,841.030519 C779.841399,786.301487 820.499497,726.483704 835.74316,697.75164 L835.78379,697.739233 C838.55002,691.944011 841.160331,686.20561 843.619184,680.523757 C843.636361,680.47094 843.643909,680.448159 843.643909,680.448159 L843.643909,680.448159 C979.744185,365.829663 651.421584,224.619749 616.103083,210.48554 L615.700136,210.325371 Z" id="Combined-Shape" fill="#00A7AB"></path>
            </g>
        </g>
    </g>
</svg>