<?xml version="1.0" encoding="UTF-8"?>
<svg width="9167px" height="3751px" viewBox="0 0 9167 3751" version="1.1" xmlns="http://www.w3.org/2000/svg" xmlns:xlink="http://www.w3.org/1999/xlink">
    <title>Samin_Teb_Mehr_Logo===</title>
    <defs>
        <linearGradient x1="-1900.11489%" y1="487.912603%" x2="172.154522%" y2="487.912603%" id="linearGradient-1">
            <stop stop-color="#009999" offset="19%"></stop>
            <stop stop-color="#283C57" offset="76%"></stop>
        </linearGradient>
        <linearGradient x1="-1991.5043%" y1="375.776492%" x2="100.00018%" y2="375.776492%" id="linearGradient-2">
            <stop stop-color="#009999" offset="19%"></stop>
            <stop stop-color="#283C57" offset="76%"></stop>
        </linearGradient>
        <linearGradient x1="0%" y1="47.0323711%" x2="100%" y2="47.0323711%" id="linearGradient-3">
            <stop stop-color="#01A79C" offset="0%"></stop>
            <stop stop-color="#283C57" offset="100%"></stop>
        </linearGradient>
        <linearGradient x1="-1887.10645%" y1="372.785155%" x2="245.489052%" y2="372.785155%" id="linearGradient-4">
            <stop stop-color="#009999" offset="19%"></stop>
            <stop stop-color="#283C57" offset="76%"></stop>
        </linearGradient>
        <linearGradient x1="-1285.53748%" y1="-82.3887618%" x2="756.703941%" y2="-82.3887618%" id="linearGradient-5">
            <stop stop-color="#009999" offset="19%"></stop>
            <stop stop-color="#283C57" offset="76%"></stop>
        </linearGradient>
        <linearGradient x1="-1162.15056%" y1="-82.5363788%" x2="860.61404%" y2="-82.5363788%" id="linearGradient-6">
            <stop stop-color="#009999" offset="19%"></stop>
            <stop stop-color="#283C57" offset="76%"></stop>
        </linearGradient>
        <linearGradient x1="-963.542401%" y1="184.264556%" x2="1064.01156%" y2="184.264556%" id="linearGradient-7">
            <stop stop-color="#009999" offset="19%"></stop>
            <stop stop-color="#283C57" offset="76%"></stop>
        </linearGradient>
        <linearGradient x1="-0.00940438871%" y1="5.57698571%" x2="735.30094%" y2="5.57698571%" id="linearGradient-8">
            <stop stop-color="#00A7AB" offset="0%"></stop>
            <stop stop-color="#039FA5" offset="16%"></stop>
            <stop stop-color="#0B8A95" offset="40%"></stop>
            <stop stop-color="#18687A" offset="69%"></stop>
            <stop stop-color="#283C57" offset="100%"></stop>
        </linearGradient>
        <linearGradient x1="-71.8980861%" y1="26.8826623%" x2="500%" y2="26.8826623%" id="linearGradient-9">
            <stop stop-color="#00A7AB" offset="0%"></stop>
            <stop stop-color="#039FA5" offset="16%"></stop>
            <stop stop-color="#0B8A95" offset="40%"></stop>
            <stop stop-color="#18687A" offset="69%"></stop>
            <stop stop-color="#283C57" offset="100%"></stop>
        </linearGradient>
        <linearGradient x1="-217.437143%" y1="30.0871351%" x2="531.944666%" y2="30.0871351%" id="linearGradient-10">
            <stop stop-color="#00A7AB" offset="0%"></stop>
            <stop stop-color="#039FA5" offset="16%"></stop>
            <stop stop-color="#0B8A95" offset="40%"></stop>
            <stop stop-color="#18687A" offset="69%"></stop>
            <stop stop-color="#283C57" offset="100%"></stop>
        </linearGradient>
        <linearGradient x1="-204.629925%" y1="20.8428246%" x2="169.212992%" y2="20.8428246%" id="linearGradient-11">
            <stop stop-color="#00A7AB" offset="0%"></stop>
            <stop stop-color="#039FA5" offset="16%"></stop>
            <stop stop-color="#0B8A95" offset="40%"></stop>
            <stop stop-color="#18687A" offset="69%"></stop>
            <stop stop-color="#283C57" offset="100%"></stop>
        </linearGradient>
        <linearGradient x1="-412.148472%" y1="71.2457336%" x2="100%" y2="71.2457336%" id="linearGradient-12">
            <stop stop-color="#00A7AB" offset="0%"></stop>
            <stop stop-color="#039FA5" offset="16%"></stop>
            <stop stop-color="#0B8A95" offset="40%"></stop>
            <stop stop-color="#18687A" offset="69%"></stop>
            <stop stop-color="#283C57" offset="100%"></stop>
        </linearGradient>
    </defs>
    <g id="Page-1" stroke="none" stroke-width="1" fill="none" fill-rule="evenodd">
        <g id="Samin_Teb_Mehr_Logo===" fill-rule="nonzero">
            <path d="M8463.7,55.38 C8524.84,-2.62 8604.02,-0.46 8631.2,0.28 C8655.37,0.94 8750.68,3.53 8808.2,76.38 C8828.47372,102.340026 8841.57712,133.167495 8846.2,165.78 C8850.67444,201.598009 8844.73782,237.946801 8829.1,270.48 C8793.71,343.33 8721.3,366.8 8701.6,373.18 C8665.34572,384.829031 8626.79323,387.438104 8589.3,380.78 C8569.38,377.24 8503.3,364.46 8454.2,304.68 C8441.59,289.34 8397.15,235.27 8406.6,161.98 C8414.14,103.48 8451.23,67.2 8463.7,55.38 Z" id="Path" fill="url(#linearGradient-1)"></path>
            <path d="M8956.6,468.38 C8989.34,467.56 9084.42,465.2 9129.7,525.48 C9141.7,541.43 9147.48,558.17 9152.6,572.98 C9159.51,592.98 9175.99,640.57 9160.2,694.78 C9146.78,740.84 9116.98,767.94 9101.2,782.28 C9083.38,798.48 9038.44,834.15 8973.7,841.28 C8895,849.94 8797.31,815.28 8753,730.98 C8749.15,723.66 8702.43,631.33 8749.2,552.08 C8796.23,472.38 8900.12,469.79 8956.6,468.38 Z" id="Path" fill="url(#linearGradient-2)"></path>
            <path d="M9137.29453,1550.53 C9135.63,1389.55 9134.01333,1228.55 9132.4,1067.53 L8806,1067.53 L8807.65,1561.58 C8809.72616,1592.36599 8804.92688,1623.22827 8793.6,1651.93 C8774.22,1700.6 8749.6,1720.34 8742.8,1725.03 C8731.60279,1732.65946 8719.16916,1738.29266 8706.05,1741.68 C8623.9,1763.68 8335.12,1762.43 8290.45,1762.58 C8290.45,1762.58 7936.19,1763.77 7887.85,1734.78 C7874.75231,1726.69189 7862.68416,1717.04475 7851.91,1706.05 C7847.32661,1701.30802 7843.09537,1696.23789 7839.25,1690.88 C7833.78524,1676.89687 7829.14396,1662.60575 7825.35,1648.08 C7816.56944,1614.52953 7812.29852,1579.95865 7812.65,1545.28 C7813.41,1255.2 7731.75,1088.68 7731.75,1088.68 C7660.4,943.27 7512.01,839.38 7362.9,804.68 C7244.97,777.24 7142.58,796.76 7090.4,810.88 C7052.7,821.08 6971.09,844.09 6889.7,911.28 C6790.77,992.95 6751,1091.28 6729.9,1145.38 C6689.33,1249.31 6681.58,1352.05 6676.7,1416.68 C6675.05,1438.52 6673.63,1461.97 6672.65,1479.9 C6667.94,1566.04 6667.17,1636.65 6667.35,1685.13 C6662.2,1695.29 6648.13,1719.54 6618.95,1734.73 C6608.63,1740.11 6587.48,1750.73 6559.85,1746.43 C6528.02,1741.43 6509.28,1720.06 6504.35,1714.03 L5597.7,210.18 L5330.2,253.48 C5126.63333,1240.31333 4923.06667,2227.14667 4719.5,3213.98 L4035.7,1619.78 L9.09494702e-13,1628.48 L9.09494702e-13,1917.08 L3843.7,1910.88 L4636.5,3750.38 L4910.3,3732.98 L5543.6,678.08 C5679.03333,906.193333 5815.1,1133.89333 5951.8,1361.18 C6014.98,1466.18 6167.63,1702.69 6359.8,2035.33 C6367.1,2047.97 6373.11,2058.4 6377.1,2065.33 C6385.1,2066.54 6400.52,2068.71 6419.9,2070.33 C6477.83,2075.16 6727.33,2088.07 6807.55,1950.48 C6816.67112,1934.68705 6823.31509,1917.58811 6827.25,1899.78 C6862.62,1946.78 6928.84,2020.72 7034.65,2073.38 C7069.78,2090.86 7140.65,2125.24 7240.05,2130.68 C7261.72,2131.87 7332.89,2134.31 7419.35,2107.18 C7481.97,2087.54 7567.35,2060.33 7625.4,1984.53 C7653.7,1947.53 7670.92,1904.95 7696.5,1907.43 C7712.59,1908.99 7724.19,1927.62 7731.7,1944.03 C7747.65848,1969.72937 7767.11122,1993.08613 7789.5,2013.43 C7886.99,2101.62 7991.29,2084.52 8320,2093.13 C8458.51,2096.76 8604.72,2103.99 8750,2073.43 C8786.34,2065.78 8839.43,2052.26 8897.25,2017.08 C8960.97,1978.31 8998.35,1932.75 9017.5,1909.08 C9031.5,1891.78 9093.6,1812.54 9122.4,1688.08 C9132.83876,1642.98983 9137.82446,1596.80916 9137.29453,1550.53 Z M7479.4,1675.48 C7437.24,1746.31 7374.34,1777.34 7356,1785.68 C7273.05,1823.4 7165,1822.02 7082.9,1765.98 C6980.3,1695.92 6968.29,1574.51 6961.2,1502.78 C6954.61,1436.15 6941.09,1323.16 7017.1,1224.68 C7029.49,1208.63 7108.6,1109.61 7242.4,1106.18 C7263.33,1105.64 7347.12,1104.7 7418.5,1162.18 C7519.43,1243.46 7518.23,1379.31 7517.2,1496.08 C7516.65,1558.38 7515.4,1614.96 7479.4,1675.48 Z" id="Shape" fill="url(#linearGradient-3)"></path>
            <path d="M8345.7,462.68 C8382.23,464.07 8446.06,466.5 8492.3,513.98 C8516.17,538.49 8525.6,564.98 8530.3,578.68 C8534.5,590.91 8560.37,669.56 8515.1,744.28 C8469.1,820.15 8385.8,833.99 8364.8,837.48 C8347.01,840.48 8259.2,855.02 8185.9,793.78 C8177.26,786.56 8108.8,727.4 8111.7,633.88 C8112.17,618.56 8114.21,572.97 8145.9,531.18 C8202.13,457.04 8303.75,461.08 8345.7,462.68 Z" id="Path" fill="url(#linearGradient-4)"></path>
            <path d="M5929.9,2198.28 C5995.63,2180.28 6049.83,2195.8 6068.7,2201.48 C6094.1,2209.13 6138.46,2222.48 6174.6,2264.98 C6185.42,2277.71 6217.79,2316.98 6219.1,2376.28 C6220.48,2438.94 6186.28,2481.28 6176.7,2492.78 C6142.43,2533.89 6100.22,2547.14 6070.8,2556.38 C6043.53,2564.94 5977.8,2585.57 5903.4,2557.38 C5880.71,2548.79 5806.56,2520.71 5779.5,2442.98 C5754.76,2371.91 5786.81,2309.43 5794.3,2295.78 C5833.28,2224.78 5905.09,2205.08 5929.9,2198.28 Z" id="Path" fill="url(#linearGradient-5)"></path>
            <path d="M5386.5,2215.28 C5457.93,2178.49 5541.5,2182.48 5605.8,2215.28 C5623.58,2224.35 5678.88,2252.46 5705.3,2315.88 C5711.3,2330.38 5727.2,2369.98 5715.9,2418.68 C5706.38,2459.68 5682.68,2485.17 5669.3,2499.18 C5624.46,2546.11 5569.75,2558.27 5543.3,2563.78 C5475.01,2578 5421.25,2561.78 5410.8,2558.48 C5382.8,2549.62 5334.08,2534.24 5299.6,2485.38 C5292.11,2474.76 5260.33,2427.21 5267.8,2364.58 C5279,2270.65 5368.73,2224.43 5386.5,2215.28 Z" id="Path" fill="url(#linearGradient-6)"></path>
            <path d="M4481.7,1186.38 C4561.79,1146.67 4652.96,1160.51 4714.6,1199.78 C4730.1,1209.66 4766.84,1233.78 4789.6,1281.48 C4796.49,1295.94 4817.23,1341.12 4804.2,1396.88 C4791.47,1451.37 4754.44,1482.04 4737,1496.48 C4684.09,1540.3 4625.94,1546.15 4604.9,1547.98 C4582.29,1549.98 4491.38,1557.84 4421.2,1492.08 C4408.33,1480.02 4355.93,1430.92 4356.29805,1357.68 C4356.84,1250.47 4469.92,1192.22 4481.7,1186.38 Z" id="Path" fill="url(#linearGradient-7)"></path>
            <path d="M1982.51,1278.29 L1967.4,1278.29 C1943.62,1278.29 1926.03333,1271.45333 1914.64,1257.78 C1911.04,1296.87333 1894.26667,1345.26667 1864.32,1402.96 C1851.25529,1427.82128 1835.8809,1451.39847 1818.4,1473.38 C1793.65333,1504.67333 1774.44,1520.32 1760.76,1520.32 C1742.2,1520.32 1713.05,1512.98667 1673.31,1498.32 C1667.12,1496.04 1663.85,1494.09 1663.54,1492.46 C1663.54,1490.84 1666.79667,1488.56667 1673.31,1485.64 C1718.59,1465.14 1762.89,1434.06 1806.21,1392.4 C1853.76333,1346.50667 1877.54,1307.29333 1877.54,1274.76 C1877.54,1251.98 1856.17667,1215.53333 1813.45,1165.42 C1813.45,1171.93333 1822.24667,1146.87333 1839.84,1090.24 C1841.46,1084.71333 1843.90333,1084.06333 1847.17,1088.29 C1856.60333,1103.91667 1870.77333,1126.52667 1889.68,1156.12 C1912.81333,1192.24 1935.46,1210.29667 1957.62,1210.29 L1982.54,1210.29 L1982.51,1278.29 Z" id="Path" fill="url(#linearGradient-8)"></path>
            <path d="M2368.51,1278.29 L2336.23,1278.29 C2315.36333,1278.29 2293.36333,1286.75333 2270.23,1303.68 C2249.67,1318.65333 2239.39667,1329.72333 2239.41,1336.89 C2239.41,1349.23667 2244.46667,1365.18333 2254.58,1384.73 C2270.24667,1415.31667 2293.75,1438.26333 2325.09,1453.57 C2326.09,1454.21 2326.56,1455.51 2326.56,1457.48 C2326.56,1465.92667 2318.58667,1489.19667 2302.64,1527.29 C2205.97333,1478.37 2138.10333,1421.29667 2099.03,1356.07 C2087.95,1337.48333 2076.07,1308.62333 2063.39,1269.49 C2045.47667,1275.37 2021.06,1278.30333 1990.14,1278.29 L1958.4,1278.29 L1958.4,1210.29 L2006.86,1210.29 C2022.25954,1210.28405 2037.58442,1208.15055 2052.4,1203.95 C2051.06667,1187.99 2050.4,1172.19333 2050.4,1156.56 C2050.4,1098.93333 2058.86333,1048.46 2075.79,1005.14 C2088.45667,972.566667 2098.05333,956.283333 2104.58,956.289998 C2129.96,963.776667 2152.25333,982.156667 2171.46,1011.43 C2200.74,1056.33667 2215.38667,1119.45333 2215.4,1200.78 C2215.4,1211.18 2199.91333,1223.37667 2168.94,1237.37 C2149.16414,1246.40595 2128.72416,1253.9113 2107.8,1259.82 C2121.49333,1310.57333 2157.36,1355.30333 2215.4,1394.01 C2209.4,1379.71 2206.4,1363.30333 2206.4,1344.79 C2206.4,1312.29 2210.81,1289.87333 2219.63,1277.54 C2251.63,1232.71333 2294.74,1210.29667 2348.96,1210.29 L2368.55,1210.29 L2368.51,1278.29 Z M2180.51,1162.57 C2162.61667,1094.87 2139.85,1054.66667 2112.21,1041.96 C2095.62333,1072.56 2087.33333,1111.94667 2087.34,1160.12 C2087.34,1171.52667 2087.5,1184.38667 2087.82,1198.7 C2105.13889,1195.95698 2122.25157,1192.04131 2139.04,1186.98 C2166.69333,1178.85333 2180.52333,1170.71667 2180.53,1162.57 L2180.51,1162.57 Z" id="Shape" fill="url(#linearGradient-9)"></path>
            <path d="M2657.12,1167.38 C2657.12,1177.48 2650.29333,1194.27 2636.64,1217.75 C2625.59333,1237.00333 2617.95667,1248.41333 2613.73,1251.98 C2606.57,1257.86 2593.73333,1260.96 2575.22,1261.28 C2559.92667,1261.60667 2546.59333,1260.46667 2535.22,1257.86 C2503.02667,1250.68667 2476.86667,1237.31 2456.74,1217.73 C2446.64,1228.89 2436.72333,1240.04667 2426.99,1251.2 C2408.14333,1269.26667 2389.94333,1278.29333 2372.39,1278.28001 L2344.11,1278.28001 L2344.11,1210.28 L2372.88,1210.28 C2400.5,1210.28 2429.42667,1184.46667 2459.66,1132.84 C2486.63333,1086.78 2509.87333,1056.23333 2529.38,1041.2 C2532.63333,1038.59333 2539.78333,1037.28667 2550.83,1037.28 C2584.63,1037.28 2611.28,1050.97333 2630.78,1078.36 C2648.34,1102.50667 2657.12,1132.18 2657.12,1167.38 Z M2609.65,1197.84 C2610.65026,1192.31324 2611.14232,1186.7065 2611.12073,1181.09 C2611.12073,1159.75667 2605.40667,1141.53 2593.98,1126.41 C2581.56,1109.66333 2565.06667,1101.28667 2544.5,1101.28 C2534.68,1101.28 2523.90333,1108.67 2512.17,1123.45 C2503.67,1136.59 2495.00333,1149.72667 2486.17,1162.86 C2512.62333,1189.14 2545.44667,1202.28002 2584.64,1202.28002 C2594.78,1202.28667 2603.11667,1200.81 2609.65,1197.85 L2609.65,1197.84 Z" id="Shape" fill="url(#linearGradient-10)"></path>
            <path d="M3574.88,1278.29 L3545.58,1278.29 C3490.24667,1278.29 3461.60333,1251.76 3459.65,1198.7 C3426.11,1224.29333 3380.04667,1245.02667 3321.46,1260.9 C3268.72,1275.16667 3218.26667,1282.29667 3170.1,1282.29 C3021.66,1282.29 2947.44,1240.49 2947.44,1156.89 C2947.44,1131.17667 2955.25333,1100.75333 2970.88,1065.62 C2984.88,1034.06667 2994.48,1018.29 2999.68,1018.29 C3002.27,1018.29 3006.43,1020.12 3012.13,1023.76 C3017.83,1027.4 3020.68,1030.21 3020.68,1032.2 C3020.68,1027.96 3020.19,1025.68 3019.24,1025.35 C3017.33333,1025.35 3013.35333,1035.76667 3007.3,1056.6 C2998.05333,1087.52667 2993.43333,1108.19333 2993.44,1118.6 C2993.44,1182.4 3058.31,1214.29667 3188.05,1214.29 C3226.41,1214.29 3278.11,1207.29 3343.15,1193.29 C3374.08782,1186.55277 3403.83695,1175.20259 3431.4,1159.62 C3447.65333,1150.18 3460.49,1135.7 3469.91,1116.18 C3477.37667,1100.56 3481.60667,1092.09667 3482.6,1090.79 C3484.88,1090.79 3489.6,1091.95 3496.74,1094.23 C3503.88,1096.51 3507.47,1098.31 3507.47,1099.6 C3507.47,1089.82 3505.92333,1096.27333 3502.83,1118.96 C3499.73667,1141.64667 3498.2,1154.45333 3498.22,1157.38 C3498.22,1192.64667 3515.63667,1210.27667 3550.47,1210.27 L3574.88,1210.27 L3574.88,1278.29 Z M3257,1404.49 L3207.69,1457.29 L3149.69,1407.96 L3203.41,1353.67 L3257,1404.49 Z" id="Shape" fill="url(#linearGradient-11)"></path>
            <path d="M4009.15,1142.03 C4009.15,1148.90333 3999.72,1162.29667 3980.86,1182.21 C3964.26,1199.54333 3949.14,1212.94667 3935.5,1222.42 C3881.18,1259.67333 3802.18,1278.29667 3698.5,1278.29 L3551.15,1278.29 L3551.15,1211.29 L3625.15,1211.29 C3622.89,970.31 3611.24667,816.71 3590.22,750.49 L3637.57,692.29 C3673.04333,768.51 3690.29333,807.593333 3689.32,809.54 C3686.39333,810.526667 3674.84333,808.246667 3654.67,802.7 C3662.00333,860.653333 3666.83,959.45 3669.15,1099.09 L3669.15,1162.57 C3683.48333,1145.59 3708.39667,1122.23 3743.89,1092.49 C3794.35667,1050.37 3842.39333,1029.30333 3888,1029.29 C3920.25333,1029.29 3948.50667,1040.07667 3972.76,1061.65 C3997.01333,1083.22333 4009.14333,1110.01667 4009.15,1142.03 Z M3950.15,1163.24 C3950.15,1142.99333 3940.23333,1124.69333 3920.4,1108.34 C3901.87333,1093.00667 3882.37333,1085.32333 3861.9,1085.29 C3831.01333,1085.29 3792.65333,1102.64 3746.82,1137.34 C3731.54,1149.02667 3703.75,1173.67667 3663.45,1211.29 L3779.01,1211.29 C3824.17667,1210.98333 3865.46,1204.12 3902.86,1190.7 C3934.39333,1179.59333 3950.15667,1170.44 3950.15,1163.24 Z" id="Shape" fill="url(#linearGradient-12)"></path>
        </g>
    </g>
</svg>