<?xml version="1.0" encoding="UTF-8"?>
<svg width="1266px" height="413px" viewBox="0 0 1266 413" version="1.1" xmlns="http://www.w3.org/2000/svg" xmlns:xlink="http://www.w3.org/1999/xlink">
    <!-- Generator: Sketch 61 (89581) - https://sketch.com -->
    <title>TG-MED</title>
    <desc>Created with Sketch.</desc>
    <g id="Page-1" stroke="none" stroke-width="1" fill="none" fill-rule="evenodd">
        <g id="A0" transform="translate(-12119.000000, -14911.000000)" fill-rule="nonzero">
            <g id="TG-MED" transform="translate(12118.000000, 14910.200000)">
                <g id="TG_MED">
                    <g id="Group" transform="translate(0.268715, 0.519011)">
                        <rect id="Rectangle" fill="#00A7AB" x="521.731285" y="0.539812401" width="745" height="411.882353"></rect>
                        <rect id="Rectangle" fill="#283C57" x="0.731284768" y="0.539812401" width="521" height="411.882353"></rect>
                    </g>
                    <g id="MED" transform="translate(563.622517, 59.835584)" fill="#FFFFFF">
                        <path d="M401.68657,0.767852082 L401.68657,30.9380401 L307.400781,30.9379687 L307.400781,143.267969 L401.68657,143.268401 L401.68657,173.438589 L307.400781,173.437969 L307.400781,294.870969 L406.221139,294.871196 L406.221139,327.472915 L279.370755,327.472915 L279.370755,0.767852082 L401.68657,0.767852082 Z M529.947709,3.30165761 L529.225139,3.63103031 C575.152678,12.8172062 633.096727,44.4541554 632.313906,146.249779 L632.311417,146.255616 L632.311011,146.686315 C632.305527,150.487726 632.226011,178.438608 631.073166,189.851648 L631.118993,189.858585 C631.118993,189.858585 628.361139,216.140759 626.172245,224.994569 C624.705382,232.938611 621.106494,249.459642 614.828224,261.054557 L614.828132,261.449532 C614.828132,261.449532 605.238358,282.033297 592.642331,293.432086 L592.595608,293.21075 C570.463731,316.753544 543.281034,324.44475 523.22586,326.587085 L523.599311,326.764336 C523.599311,326.764336 522.418699,326.800969 520.400292,326.855328 C514.239639,327.377961 508.864197,327.386158 504.662181,327.214394 C504.259474,327.222206 503.848039,327.230015 503.434071,327.237437 C501.898095,327.299998 499.622991,327.321408 496.861832,327.312514 L496.845217,327.312417 C495.744174,327.31628 494.665518,327.314761 493.629915,327.306533 C485.543663,327.343487 477.676907,327.254927 472.744486,326.891397 C463.071485,326.648635 454.106609,326.370371 450.49373,326.255167 L448.812503,326.255616 L448.812503,1.19679221 L466.567781,1.19596868 L466.547709,0.765925847 C466.547709,0.765925847 511.423152,-1.75385792 529.947709,3.30165761 Z M52.5750993,0.783849 L117.945781,270.943969 L117.940079,270.907812 L181.256106,0.783849 L220.757245,0.783849 L234.764026,326.901496 L202.921272,326.901496 L194.932781,34.7959687 L126.471788,326.30514 L102.270623,326.30514 L37.7197815,49.9839687 L25.8715232,326.337134 L0.326781457,326.337134 C0.326781457,316.291069 16.9031523,0.815842837 16.9031523,0.815842837 L16.9187815,0.814968685 L16.9031523,0.783849 L52.5750993,0.783849 Z M498.592898,29.4242567 L498.390464,29.484244 C496.497431,29.8494122 494.593197,30.1622907 492.680265,30.4224679 L492.680265,30.4224679 L491.924503,30.4224679 L491.870007,30.3325124 C483.780691,31.8825713 476.793252,35.1534259 474.754188,41.59759 C474.315242,43.8018371 474.508397,45.614087 474.508397,45.614087 L474.508397,45.614087 L474.289781,46.0829687 L474.290197,285.481575 C474.373888,287.119506 474.595285,288.949028 475.124399,290.175534 C484.174952,299.796546 513.069033,296.778076 513.069033,296.778076 L513.069033,296.778076 L513.217694,297.508485 C588.816378,290.921633 601.827135,208.132229 603.908785,172.250465 L603.916964,172.054566 C604.575647,155.622446 603.606406,136.34535 603.473013,133.825984 C600.079198,94.8497622 583.654152,30.6776188 512.464424,29.6875258 C512.034936,29.4871981 511.59415,29.3114859 511.144537,29.1609194 C507.298458,29.0284529 502.937325,29.0488669 498.592898,29.4242567 Z" id="Combined-Shape"></path>
                    </g>
                    <g id="TG" transform="translate(29.550993, 27.735629)" fill="#FFFFFF">
                        <path d="M185.015361,0.85260583 L185.015361,104.804005 L134.666856,104.804005 L134.666856,358.734959 L56.3787142,358.734959 L56.3787142,104.804005 L0.449006623,104.804005 L0.449006623,0.85260583 L185.015361,0.85260583 Z M444.137847,120.156969 L444.13788,120.165987 L444.154658,120.156969 C444.856871,122.918878 444.464472,122.67873 444.441476,122.662753 L444.440443,122.662007 L442.754007,122.730606 L374.592007,125.534606 L374.591349,125.535885 L367.093708,125.843252 L367.08226,125.826998 C366.344249,124.782301 330.034653,73.834092 290.143963,105.45925 L290.150435,105.464843 C287.154452,108.009633 284.423391,110.803126 281.992369,113.809346 C270.440478,129.315873 232.150479,189.477572 284.292447,246.138941 L284.35069,246.069715 C284.35069,246.069715 287.232133,249.562649 291.62511,253.022795 L291.62979,253.016201 C291.62979,253.016201 294.515343,255.117839 297.684999,256.989339 L298.454996,257.273229 C298.454996,257.273229 298.662618,257.382242 299.0603,257.568894 L300.085649,257.980173 C301.362563,258.52468 302.728655,259.055894 304.165538,259.56392 C315.462834,263.286816 341.660597,267.938792 365.698408,243.042154 L365.689007,243.102606 L368.320901,240.58322 L316.812447,240.58322 L316.812447,146.267766 L448.407804,146.267766 C448.415686,146.272944 448.423575,146.278112 448.431471,146.283271 L451.28246,146.283134 L451.287713,150.11916 C461.639894,274.511336 399.40797,322.548092 398.162296,323.496388 L398.143354,323.510741 L398.126451,323.480729 C396.643102,324.889031 297.808826,417.932073 213.87925,287.506906 L213.845973,287.518107 C210.669686,282.991687 207.982992,278.199006 205.820658,273.20825 C198.529456,259.098924 193.781637,241.405571 191.146912,229.48764 C164.952955,127.618289 210.491142,65.1237608 242.605607,35.3922412 L242.575721,35.36988 C242.575721,35.36988 249.51272,28.0830506 259.807021,20.9622499 C261.105446,19.9413747 281.31648,4.43921717 314.055467,2.35870239 L314.061542,2.3585578 C415.028471,-8.30879537 444.137847,120.156969 444.137847,120.156969 Z" id="Combined-Shape"></path>
                    </g>
                </g>
            </g>
        </g>
    </g>
</svg>